<?xml version="1.0" encoding="UTF-8" standalone="no"?>
<svg
   xmlns:dc="http://purl.org/dc/elements/1.1/"
   xmlns:cc="http://creativecommons.org/ns#"
   xmlns:rdf="http://www.w3.org/1999/02/22-rdf-syntax-ns#"
   xmlns:svg="http://www.w3.org/2000/svg"
   xmlns="http://www.w3.org/2000/svg"
   xmlns:sodipodi="http://sodipodi.sourceforge.net/DTD/sodipodi-0.dtd"
   xmlns:inkscape="http://www.inkscape.org/namespaces/inkscape"
   version="1.1"
   width="880.87244"
   height="460.18213"
   viewBox="-1040.8889 -32 867.00685 452.9385"
   id="ccdiagram"
   sodipodi:docname="schema.svg"
   inkscape:version="0.92.4 (5da689c313, 2019-01-14)">
  <metadata
     id="metadata399">
    <rdf:RDF>
      <cc:Work
         rdf:about="">
        <dc:format>image/svg+xml</dc:format>
        <dc:type
           rdf:resource="http://purl.org/dc/dcmitype/StillImage" />
        <dc:title></dc:title>
      </cc:Work>
    </rdf:RDF>
  </metadata>
  <sodipodi:namedview
     pagecolor="#ffffff"
     bordercolor="#666666"
     borderopacity="1"
     objecttolerance="10"
     gridtolerance="10"
     guidetolerance="10"
     inkscape:pageopacity="0"
     inkscape:pageshadow="2"
     inkscape:window-width="2560"
     inkscape:window-height="1403"
     id="namedview397"
     showgrid="false"
     fit-margin-top="0"
     fit-margin-left="0"
     fit-margin-right="0"
     fit-margin-bottom="0"
     inkscape:zoom="1.03709"
     inkscape:cx="488.42209"
     inkscape:cy="64.679326"
     inkscape:window-x="2560"
     inkscape:window-y="0"
     inkscape:window-maximized="1"
     inkscape:current-layer="ccdiagram" />
  <filter
     id="grayscale">
    <feColorMatrix
       type="matrix"
       values="0.3333 0.3333 0.3333 0 0 0.3333 0.3333 0.3333 0 0 0.3333 0.3333 0.3333 0 0 0 0 0 1 0"
       id="feColorMatrix2" />
  </filter>
  <defs
     id="defs7">
    <style
       type="text/css"
       id="style5">@import url('https://fonts.googleapis.com/css?family=Open+Sans:400,700|Inconsolata:400');</style>
  </defs>
  <g
     id="g394"
     transform="matrix(0.8992933,0,0,0.8992933,-636.16854,-62.679357)">
    <g
       pointer-events="auto"
       id="g33">
      <g
         id="g19"
         style="opacity:1">
        <g
           id="g17">
          <g
             id="g15">
            <polygon
               points="304,442 176,368 176,331 320,248 384,248 512,322 512,359 368,442 "
               id="polygon9"
               style="opacity:0.2;fill:#000000" />
            <polygon
               points="304,435 176,361 176,324 320,241 384,241 512,315 512,352 368,435 "
               id="polygon11"
               style="fill:#ffffff;stroke:#818181;stroke-width:2" />
            <polygon
               points="352,259 480,333 336,416 208,342 "
               fill="rgba(0, 0, 0, 0)"
               id="polygon13"
               style="stroke:#818181;stroke-width:0" />
          </g>
        </g>
      </g>
      <g
         id="g31"
         style="opacity:1">
        <g
           id="g29">
          <g
             id="g27">
            <polygon
               points="80,313 -176,165 -176,128 -32,44 32,44 288,192 288,229 144,313 "
               id="polygon21"
               style="opacity:0.2;fill:#000000" />
            <polygon
               points="80,305 -176,157 -176,120 -32,37 32,37 288,185 288,222 144,305 "
               id="polygon23"
               style="fill:#ffffff;stroke:#818181;stroke-width:2" />
            <polygon
               points="0,56 256,204 112,287 -144,139 "
               fill="rgba(0, 0, 0, 0)"
               id="polygon25"
               style="stroke:#818181;stroke-width:0" />
          </g>
        </g>
      </g>
    </g>
    <g
       pointer-events="auto"
       id="g35" />
    <g
       id="g37" />
    <g
       pointer-events="auto"
       id="g39" />
    <g
       id="g41" />
    <g
       pointer-events="auto"
       id="g73">
      <g
         id="g56"
         style="opacity:1">
        <g
           id="604eefb1-b37a-4cb9-b0f3-ae7ace8c580e">
          <svg
             x="0"
             y="93"
             overflow="visible"
             version="1.1"
             id="svg53"
             width="100%"
             height="100%"
             style="overflow:visible">
            <polygon
               points="0,0 191,111 127,148 -64,37 "
               id="polygon43"
               style="fill:#f5b720" />
            <polygon
               points="0,0 191,111 127,148 -64,37 "
               id="polygon45"
               style="opacity:1;fill:none;stroke:#f5b720;stroke-width:20" />
            <g
               cursor="nwse-resize"
               id="g51">
              <polygon
                 points="-64,37 0,0 -19,-11 13,-30 -83,-11 -115,44 -83,26 "
                 id="polygon47"
                 style="fill:#f5b720" />
              <polygon
                 points="127,148 191,111 211,122 243,103 211,159 115,177 147,159 "
                 id="polygon49"
                 style="fill:#f5b720" />
            </g>
          </svg>
        </g>
      </g>
      <g
         id="g71"
         style="opacity:1">
        <g
           id="3439ca90-8496-4630-8f0b-cf2682818612">
          <svg
             x="352"
             y="296"
             overflow="visible"
             version="1.1"
             id="svg68"
             width="100%"
             height="100%"
             style="overflow:visible">
            <polygon
               points="0,0 64,37 0,74 -64,37 "
               id="polygon58"
               style="fill:#f5b720" />
            <polygon
               points="0,0 64,37 0,74 -64,37 "
               id="polygon60"
               style="opacity:1;fill:none;stroke:#f5b720;stroke-width:20" />
            <g
               cursor="nwse-resize"
               id="g66">
              <polygon
                 points="-64,37 0,0 -19,-11 13,-30 -83,-11 -115,44 -83,26 "
                 id="polygon62"
                 style="fill:#f5b720" />
              <polygon
                 points="0,74 64,37 83,48 115,30 83,85 -13,104 19,85 "
                 id="polygon64"
                 style="fill:#f5b720" />
            </g>
          </svg>
        </g>
      </g>
    </g>
    <g
       pointer-events="none"
       id="g75" />
    <g
       pointer-events="auto"
       id="g157">
      <g
         id="g83">
        <g
           cursor="cell"
           id="g81">
          <line
             x1="32"
             y1="259"
             x2="224"
             y2="370"
             id="line77"
             style="opacity:0;stroke:#ff0000;stroke-width:8" />
          <line
             x1="32"
             y1="259"
             x2="224"
             y2="370"
             id="line79"
             style="stroke:#4286c5;stroke-width:2;stroke-linecap:round" />
        </g>
      </g>
      <g
         id="g91">
        <g
           cursor="cell"
           id="g89">
          <line
             x1="-19"
             y1="289"
             x2="32"
             y2="259"
             id="line85"
             style="opacity:0;stroke:#ff0000;stroke-width:8" />
          <line
             x1="-19"
             y1="289"
             x2="32"
             y2="259"
             id="line87"
             style="stroke:#4286c5;stroke-width:2;stroke-linecap:round" />
        </g>
      </g>
      <g
         id="g99">
        <g
           cursor="cell"
           id="g97">
          <line
             x1="224"
             y1="370"
             x2="288"
             y2="370"
             id="line93"
             style="opacity:0;stroke:#ff0000;stroke-width:8" />
          <line
             x1="224"
             y1="370"
             x2="288"
             y2="370"
             id="line95"
             style="stroke:#4286c5;stroke-width:2;stroke-linecap:round" />
        </g>
      </g>
      <g
         id="g107">
        <g
           cursor="cell"
           id="g105">
          <line
             x1="-64"
             y1="204"
             x2="-64"
             y2="167"
             id="line101"
             style="opacity:0;stroke:#ff0000;stroke-width:8" />
          <line
             x1="-64"
             y1="204"
             x2="-64"
             y2="167"
             id="line103"
             style="stroke:#4286c5;stroke-width:2;stroke-linecap:round" />
        </g>
      </g>
      <g
         id="g117">
        <g
           cursor="cell"
           id="g115">
          <line
             x1="-64"
             y1="167"
             x2="-42"
             y2="154"
             id="line109"
             style="opacity:0;stroke:#ff0000;stroke-width:8" />
          <line
             x1="-64"
             y1="167"
             x2="-42"
             y2="154"
             id="line111"
             style="stroke:#4286c5;stroke-width:2;stroke-linecap:round" />
          <polygon
             points="-32,148 -58,153 -44,155 -41,163 "
             id="polygon113"
             style="fill:#4286c5;stroke:#4286c5;stroke-width:1;stroke-linejoin:round" />
        </g>
      </g>
      <g
         id="g127">
        <g
           cursor="cell"
           id="g125">
          <line
             x1="288"
             y1="370"
             x2="310"
             y2="357"
             id="line119"
             style="opacity:0;stroke:#ff0000;stroke-width:8" />
          <line
             x1="288"
             y1="370"
             x2="310"
             y2="357"
             id="line121"
             style="stroke:#4286c5;stroke-width:2;stroke-linecap:round" />
          <polygon
             points="320,352 294,357 308,359 311,366 "
             id="polygon123"
             style="fill:#4286c5;stroke:#4286c5;stroke-width:1;stroke-linejoin:round" />
        </g>
      </g>
      <g
         id="g135">
        <g
           cursor="cell"
           id="g133">
          <line
             x1="32"
             y1="259"
             x2="-64"
             y2="204"
             id="line129"
             style="opacity:0;stroke:#ff0000;stroke-width:8" />
          <line
             x1="32"
             y1="259"
             x2="-64"
             y2="204"
             id="line131"
             style="stroke:#4286c5;stroke-width:2;stroke-linecap:round" />
        </g>
      </g>
      <g
         id="g145">
        <g
           cursor="cell"
           id="g143">
          <line
             x1="-352"
             y1="481"
             x2="-202"
             y2="394"
             id="line137"
             style="opacity:0;stroke:#ff0000;stroke-width:8" />
          <line
             x1="-352"
             y1="481"
             x2="-202"
             y2="394"
             id="line139"
             style="stroke:#4286c5;stroke-width:2;stroke-linecap:round" />
          <polygon
             points="-192,389 -218,394 -204,396 -201,403 "
             id="polygon141"
             style="fill:#4286c5;stroke:#4286c5;stroke-width:1;stroke-linejoin:round" />
        </g>
      </g>
      <g
         id="g155">
        <g
           cursor="cell"
           id="g153">
          <line
             x1="32"
             y1="259"
             x2="86"
             y2="227"
             id="line147"
             style="opacity:0;stroke:#ff0000;stroke-width:8" />
          <line
             x1="32"
             y1="259"
             x2="86"
             y2="227"
             id="line149"
             style="stroke:#4286c5;stroke-width:2;stroke-linecap:round" />
          <polygon
             points="95,222 70,227 83,229 86,236 "
             id="polygon151"
             style="fill:#4286c5;stroke:#4286c5;stroke-width:1;stroke-linejoin:round" />
        </g>
      </g>
    </g>
    <g
       pointer-events="auto"
       id="g280">
      <g
         id="g174"
         style="opacity:1">
        <g
           id="630f438e-53de-4454-ab3d-9df5b0311e16">
          <svg
             x="-64"
             y="56"
             height="111"
             width="128"
             version="1.1"
             id="svg171"
             style="fill-rule:evenodd">
            <path
               d="m 64,74 v 37 L 128,74 V 37 Z"
               id="path159"
               inkscape:connector-curvature="0"
               style="fill:#b8b8bb" />
            <path
               d="m 0,37 v 37 l 64,37 V 74 Z"
               id="path161"
               inkscape:connector-curvature="0"
               style="fill:#d2d2d4" />
            <path
               d="M 0,37 64,0 128,37 64,74 Z"
               id="path163"
               inkscape:connector-curvature="0"
               style="fill:#ececed" />
            <path
               d="m 64,73.407 62.111,-35.86 0.514,0.889 -62.487,36.078 H 63.862 L 0.743,38.072 1.257,37.182 Z"
               id="path165"
               inkscape:connector-curvature="0"
               style="fill:#83838a" />
            <path
               d="m 63.486,74 h 1.027 v 36 h -1.027 z"
               id="path167"
               inkscape:connector-curvature="0"
               style="fill:#83838a" />
            <path
               d="M 128,37 V 74 L 64,111 0,74 V 37 L 64,0 Z M 2.054,38.185 v 34.63 L 64,108.627 125.946,72.815 V 38.185 L 64,2.373 Z"
               id="path169"
               inkscape:connector-curvature="0"
               style="fill:#000000" />
          </svg>
        </g>
      </g>
      <g
         id="g191"
         style="opacity:1">
        <g
           id="a74cf45a-47a8-4140-bc69-bded33ced160">
          <svg
             x="63"
             y="129"
             height="111"
             width="128"
             version="1.1"
             id="svg188"
             style="fill-rule:evenodd">
            <path
               d="m 64,74 v 37 L 128,74 V 37 Z"
               id="path176"
               inkscape:connector-curvature="0"
               style="fill:#b8b8bb" />
            <path
               d="m 0,37 v 37 l 64,37 V 74 Z"
               id="path178"
               inkscape:connector-curvature="0"
               style="fill:#d2d2d4" />
            <path
               d="M 0,37 64,0 128,37 64,74 Z"
               id="path180"
               inkscape:connector-curvature="0"
               style="fill:#ececed" />
            <path
               d="m 64,73.407 62.111,-35.86 0.514,0.889 -62.487,36.078 H 63.862 L 0.743,38.072 1.257,37.182 Z"
               id="path182"
               inkscape:connector-curvature="0"
               style="fill:#83838a" />
            <path
               d="m 63.486,74 h 1.027 v 36 h -1.027 z"
               id="path184"
               inkscape:connector-curvature="0"
               style="fill:#83838a" />
            <path
               d="M 128,37 V 74 L 64,111 0,74 V 37 L 64,0 Z M 2.054,38.185 v 34.63 L 64,108.627 125.946,72.815 V 38.185 L 64,2.373 Z"
               id="path186"
               inkscape:connector-curvature="0"
               style="fill:#000000" />
          </svg>
        </g>
      </g>
      <g
         id="g208"
         style="opacity:1">
        <g
           id="66cb35c4-eb30-4049-8e15-1f6c8e72557a">
          <svg
             x="288"
             y="259"
             height="111"
             width="128"
             version="1.1"
             id="svg205"
             style="fill-rule:evenodd">
            <path
               d="m 64,74 v 37 L 128,74 V 37 Z"
               id="path193"
               inkscape:connector-curvature="0"
               style="fill:#b8b8bb" />
            <path
               d="m 0,37 v 37 l 64,37 V 74 Z"
               id="path195"
               inkscape:connector-curvature="0"
               style="fill:#d2d2d4" />
            <path
               d="M 0,37 64,0 128,37 64,74 Z"
               id="path197"
               inkscape:connector-curvature="0"
               style="fill:#ececed" />
            <path
               d="m 64,73.407 62.111,-35.86 0.514,0.889 -62.487,36.078 H 63.862 L 0.743,38.072 1.257,37.182 Z"
               id="path199"
               inkscape:connector-curvature="0"
               style="fill:#83838a" />
            <path
               d="m 63.486,74 h 1.027 v 36 h -1.027 z"
               id="path201"
               inkscape:connector-curvature="0"
               style="fill:#83838a" />
            <path
               d="M 128,37 V 74 L 64,111 0,74 V 37 L 64,0 Z M 2.054,38.185 v 34.63 L 64,108.627 125.946,72.815 V 38.185 L 64,2.373 Z"
               id="path203"
               inkscape:connector-curvature="0"
               style="fill:#000000" />
          </svg>
        </g>
      </g>
      <g
         id="g261"
         style="opacity:1">
        <g
           id="67369d86-1697-4055-9286-9851be52cdca">
          <svg
             x="-240"
             y="230"
             height="165.108"
             width="227"
             viewBox="0 0 60.06 43.685"
             version="1.1"
             id="svg258">
            <path
               d="m 2647.212,-1556.832 -31.177,18 -31.177,-18 v -36 l 31.177,-18 31.177,18 z"
               transform="matrix(0,-0.16718,-0.14432,-0.08359,-188.401,313.367)"
               id="path210"
               inkscape:connector-curvature="0"
               style="fill:#679fd2;stroke:#ffffff;stroke-width:1.72300005" />
            <path
               d="M 2.895,20.22 8.197,23.286 41.472,3.956 36.276,0.947 Z"
               id="path212"
               inkscape:connector-curvature="0"
               style="fill:#8eb8de;fill-rule:evenodd;stroke:#ffffff;stroke-width:0.264584" />
            <path
               d="m 2647.212,-1556.832 -31.177,18 -31.177,-18 v -36 l 31.177,-18 31.177,18 z"
               transform="matrix(0,-0.16718,-0.14432,-0.08359,-213.883,331.997)"
               id="path214"
               inkscape:connector-curvature="0"
               style="fill:#679fd2;stroke:#ffffff;stroke-width:1.72300005" />
            <path
               d="m 2647.212,-1556.832 -31.177,18 -31.177,-18 v -36 l 31.177,-18 31.177,18 z"
               transform="matrix(0,-0.16718,-0.14432,-0.08359,-213.99,342.365)"
               id="path216"
               inkscape:connector-curvature="0"
               style="fill:#679fd2;stroke:#ffffff;stroke-width:1.70299995" />
            <path
               d="m 2647.212,-1556.832 -31.177,18 -31.177,-18 v -36 l 31.177,-18 31.177,18 z"
               transform="matrix(0,-0.16718,-0.14432,-0.08359,-221.782,332.64)"
               id="path218"
               inkscape:connector-curvature="0"
               style="fill:#679fd2;stroke:#ffffff;stroke-width:1.70299995" />
            <path
               d="m 2647.212,-1556.832 -31.177,18 -31.177,-18 v -36 l 31.177,-18 31.177,18 z"
               transform="matrix(0,-0.16718,-0.14432,-0.08359,-180.502,312.725)"
               id="path220"
               inkscape:connector-curvature="0"
               style="fill:#679fd2;stroke:#ffffff;stroke-width:1.72300005" />
            <path
               d="m 2647.212,-1556.832 -31.177,18 -31.177,-18 v -36 l 31.177,-18 31.177,18 z"
               transform="matrix(0,-0.16718,-0.14432,-0.08359,-180.608,323.092)"
               id="path222"
               inkscape:connector-curvature="0"
               style="fill:#679fd2;stroke:#ffffff;stroke-width:1.72300005" />
            <path
               d="m 2647.212,-1556.832 -31.177,18 -31.177,-18 v -36 l 31.177,-18 31.177,18 z"
               transform="matrix(0,-0.16718,-0.14432,-0.08359,-172.709,322.45)"
               id="path224"
               inkscape:connector-curvature="0"
               style="fill:#679fd2;stroke:#ffffff;stroke-width:1.72300005" />
            <path
               d="M 23.718,32.238 57.098,12.966 M 26.381,39.03 59.762,19.757 M 23.783,42.737 57.165,23.465 M 15.884,43.379 49.265,24.106 M 18.588,29.304 51.883,9.954"
               id="path226"
               inkscape:connector-curvature="0"
               style="fill:none;fill-rule:evenodd;stroke:#ffffff;stroke-width:0.26756057" />
            <path
               d="M 23.783,32.313 26.381,39.03 59.762,19.757 57.099,12.966 Z"
               id="path228"
               inkscape:connector-curvature="0"
               style="fill:#3f86c7;fill-rule:evenodd;stroke:#ffffff;stroke-width:0.264584" />
            <path
               d="m 2647.212,-1556.832 -31.177,18 -31.177,-18 v -36 l 31.177,-18 31.177,18 z"
               transform="matrix(0,-0.16718,-0.14432,-0.08359,-206.09,341.723)"
               id="path230"
               inkscape:connector-curvature="0"
               style="fill:#679fd2;stroke:#ffffff;stroke-width:1.70299995" />
            <path
               d="M 15.99,22.587 49.371,3.315 M 10.795,19.578 44.176,0.306 M 2.855,20.193 36.235,0.92"
               id="path232"
               inkscape:connector-curvature="0"
               style="fill:none;fill-rule:evenodd;stroke:#ffffff;stroke-width:0.26756057" />
            <path
               d="m 26.381,39.03 -2.598,3.707 33.382,-19.272 2.597,-3.708 z"
               id="path234"
               inkscape:connector-curvature="0"
               style="fill:#306ca3;fill-rule:evenodd;stroke:#ffffff;stroke-width:0.264584" />
            <path
               d="m 18.482,39.672 -2.598,3.707 4.51,-2.604 z"
               id="path236"
               inkscape:connector-curvature="0"
               style="fill:#306ca3;fill-rule:evenodd;stroke:#ffffff;stroke-width:0.26756057" />
            <path
               d="m 18.588,29.304 5.195,3.01 L 57.1,12.965 51.884,9.953 Z"
               id="path238"
               inkscape:connector-curvature="0"
               style="fill:#8eb8de;fill-rule:evenodd;stroke:#ffffff;stroke-width:0.264584" />
            <path
               d="m 15.99,22.587 2.555,6.678 33.338,-19.31 -2.512,-6.64 z"
               id="path240"
               inkscape:connector-curvature="0"
               style="fill:#3f86c7;fill-rule:evenodd;stroke:#ffffff;stroke-width:0.264584" />
            <path
               d="m 21.836,11.715 -0.927,0.535 -0.463,-0.267 0.927,-0.535 z m 1.622,-0.134 -1.854,1.07 -0.463,-0.267 1.854,-1.07 z m -0.232,2.275 -0.231,0.134 -3.708,-2.141 2.78,-1.606 0.233,0.134 -2.55,1.472 3.477,2.007 z m 0.464,-1.606 -1.39,0.803 -0.464,-0.267 1.39,-0.803 z m 1.39,0 -2.085,1.204 -0.464,-0.267 2.086,-1.204 z"
               id="path242"
               inkscape:connector-curvature="0"
               style="fill:#4286c5;stroke-width:1.01199996" />
            <path
               d="M 10.795,19.578 15.99,22.588 49.371,3.314 44.176,0.305 Z"
               id="path244"
               inkscape:connector-curvature="0"
               style="fill:#8eb8de;fill-rule:evenodd;stroke:#ffffff;stroke-width:0.264584" />
            <path
               d="m 2647.212,-1556.832 -31.177,18 -31.177,-18 v -36 l 31.177,-18 31.177,18 z"
               transform="matrix(0,-0.11907,-0.10278,-0.05953,-148.476,244.02)"
               id="path246"
               inkscape:connector-curvature="0"
               style="fill:#5b5b62;stroke:#000000;stroke-width:2.39199996" />
            <path
               d="M 0.298,23.927 2.895,20.22 36.276,0.947 l 3.39,1.963 4.51,-2.604 5.195,3.009 2.512,6.64 5.216,3.01 2.663,6.792 -2.597,3.708 -33.382,19.272 -3.394,-1.966 -4.505,2.608 -5.195,-3.01 -2.598,-6.716 -5.196,-3.009 z"
               id="path248"
               inkscape:connector-curvature="0"
               style="fill:none;fill-rule:evenodd;stroke:#000000;stroke-width:0.52916801" />
            <path
               d="m 2647.212,-1556.832 -31.177,18 -31.177,-18 v -36 l 31.177,-18 31.177,18 z"
               transform="matrix(0,-0.11907,-0.10278,-0.05953,-140.683,253.747)"
               id="path250"
               inkscape:connector-curvature="0"
               style="fill:#5b5b62;stroke:#000000;stroke-width:2.39199996" />
            <path
               d="m 2647.212,-1556.832 -31.177,18 -31.177,-18 v -36 l 31.177,-18 31.177,18 z"
               transform="matrix(0,-0.11907,-0.10278,-0.05953,-148.583,254.388)"
               id="path252"
               inkscape:connector-curvature="0"
               style="fill:#5b5b62;stroke:#000000;stroke-width:2.39199996" />
            <path
               d="m 2647.212,-1556.832 -31.177,18 -31.177,-18 v -36 l 31.177,-18 31.177,18 z"
               transform="matrix(0,-0.11907,-0.10278,-0.05953,-156.376,244.663)"
               id="path254"
               inkscape:connector-curvature="0"
               style="fill:#5b5b62;stroke:#000000;stroke-width:2.39199996" />
            <path
               d="m 29.215,11.067 -0.927,0.535 -0.464,-0.267 0.927,-0.535 z m 1.622,-0.134 -1.854,1.07 -0.464,-0.267 1.854,-1.07 z m -0.232,2.275 -0.232,0.134 -3.708,-2.141 2.781,-1.606 0.232,0.134 -2.55,1.472 z m 0.464,-1.606 -1.391,0.803 -0.463,-0.267 1.39,-0.803 z m 1.39,0 -2.086,1.205 -0.463,-0.268 2.086,-1.204 z m 4.689,8.863 -0.927,0.535 -0.463,-0.268 0.927,-0.535 z m 1.623,-0.134 -1.855,1.07 -0.463,-0.267 1.854,-1.07 z m -0.232,2.275 -0.232,0.133 -3.708,-2.14 2.78,-1.606 0.233,0.134 -2.55,1.472 z M 39.002,21 l -1.39,0.803 -0.464,-0.268 1.39,-0.803 z m 1.39,0 -2.085,1.204 -0.463,-0.268 2.085,-1.204 z"
               id="path256"
               inkscape:connector-curvature="0"
               style="fill:#4286c5;stroke-width:1.01199996" />
          </svg>
        </g>
      </g>
      <g
         id="g278"
         style="opacity:1">
        <g
           id="816d5eeb-6430-4f0f-ac40-bca7200152b0">
          <svg
             x="-448"
             y="426"
             height="111"
             width="128"
             version="1.1"
             id="svg275"
             style="fill-rule:evenodd">
            <path
               d="m 64,74 v 37 L 128,74 V 37 Z"
               id="path263"
               inkscape:connector-curvature="0"
               style="fill:#b8b8bb" />
            <path
               d="m 0,37 v 37 l 64,37 V 74 Z"
               id="path265"
               inkscape:connector-curvature="0"
               style="fill:#d2d2d4" />
            <path
               d="M 0,37 64,0 128,37 64,74 Z"
               id="path267"
               inkscape:connector-curvature="0"
               style="fill:#ececed" />
            <path
               d="m 64,73.407 62.111,-35.86 0.514,0.889 -62.487,36.078 H 63.862 L 0.743,38.072 1.257,37.182 Z"
               id="path269"
               inkscape:connector-curvature="0"
               style="fill:#83838a" />
            <path
               d="m 63.486,74 h 1.027 v 36 h -1.027 z"
               id="path271"
               inkscape:connector-curvature="0"
               style="fill:#83838a" />
            <path
               d="M 128,37 V 74 L 64,111 0,74 V 37 L 64,0 Z M 2.054,38.185 v 34.63 L 64,108.627 125.946,72.815 V 38.185 L 64,2.373 Z"
               id="path273"
               inkscape:connector-curvature="0"
               style="fill:#000000" />
          </svg>
        </g>
      </g>
    </g>
    <g
       pointer-events="auto"
       id="g282" />
    <g
       pointer-events="auto"
       id="g284" />
    <g
       pointer-events="auto"
       id="g390">
      <g
         id="g297"
         style="opacity:1">
        <g
           id="72c1a7c5-bbaf-4765-88ba-b9a524c7eafd">
          <svg
             x="-176"
             y="416"
             overflow="visible"
             version="1.1"
             id="svg294"
             width="100%"
             height="100%"
             style="overflow:visible">
            <text
               y="36.5"
               font-size="25pt"
               font-weight="bold"
               transform="matrix(0.707,-0.409,0.707,0.409,0,0)"
               xml:space="preserve"
               id="text288"
               style="font-weight:bold;font-size:33.33333206px;font-family:'Open Sans';fill:#4286c5;stroke:#ffffff;stroke-width:4"><tspan
                 x="8"
                 dy="0"
                 id="tspan286">http-broadcast</tspan></text>
            <text
               y="36.5"
               font-size="25pt"
               font-weight="bold"
               transform="matrix(0.707,-0.409,0.707,0.409,0,0)"
               xml:space="preserve"
               id="text292"
               style="font-weight:bold;font-size:33.33333206px;font-family:'Open Sans';fill:#4286c5"><tspan
                 x="8"
                 dy="0"
                 id="tspan290">http-broadcast</tspan></text>
          </svg>
        </g>
      </g>
      <g
         id="g310"
         style="opacity:1">
        <g
           id="38753f2c-d9f6-466c-a46c-c436fa1d8075">
          <svg
             x="-400"
             y="435"
             overflow="visible"
             version="1.1"
             id="svg307"
             width="100%"
             height="100%"
             style="overflow:visible">
            <text
               y="30.799999"
               font-size="20pt"
               font-weight="bold"
               transform="matrix(0.707,0.409,-0.707,0.409,0,0)"
               xml:space="preserve"
               id="text301"
               style="font-weight:bold;font-size:26.66666603px;font-family:'Open Sans';fill:#f5b720;stroke:#ffffff;stroke-width:4"><tspan
                 x="8"
                 dy="0"
                 id="tspan299">client</tspan></text>
            <text
               y="30.799999"
               font-size="20pt"
               font-weight="bold"
               transform="matrix(0.707,0.409,-0.707,0.409,0,0)"
               xml:space="preserve"
               id="text305"
               style="font-weight:bold;font-size:26.66666603px;font-family:'Open Sans';fill:#f5b720"><tspan
                 x="8"
                 dy="0"
                 id="tspan303">client</tspan></text>
          </svg>
        </g>
      </g>
      <g
         id="g323"
         style="opacity:1">
        <g
           id="f0865ce0-e05f-4b25-b040-0f05ce57c588">
          <svg
             x="-16"
             y="65"
             overflow="visible"
             version="1.1"
             id="svg320"
             width="100%"
             height="100%"
             style="overflow:visible">
            <text
               y="29.66"
               font-size="19pt"
               font-weight="bold"
               transform="matrix(0.707,0.409,-0.707,0.409,0,0)"
               xml:space="preserve"
               id="text314"
               style="font-weight:bold;font-size:25.33333397px;font-family:'Open Sans';fill:#f5b720;stroke:#ffffff;stroke-width:4"><tspan
                 x="8"
                 dy="0"
                 id="tspan312">server</tspan></text>
            <text
               y="29.66"
               font-size="19pt"
               font-weight="bold"
               transform="matrix(0.707,0.409,-0.707,0.409,0,0)"
               xml:space="preserve"
               id="text318"
               style="font-weight:bold;font-size:25.33333397px;font-family:'Open Sans';fill:#f5b720"><tspan
                 x="8"
                 dy="0"
                 id="tspan316">server</tspan></text>
          </svg>
        </g>
      </g>
      <g
         id="g336"
         style="opacity:1">
        <g
           id="1890cac7-cc5c-4124-9afb-0fa118fde95e">
          <svg
             x="111"
             y="138"
             overflow="visible"
             version="1.1"
             id="svg333"
             width="100%"
             height="100%"
             style="overflow:visible">
            <text
               y="29.66"
               font-size="19pt"
               font-weight="bold"
               transform="matrix(0.707,0.409,-0.707,0.409,0,0)"
               xml:space="preserve"
               id="text327"
               style="font-weight:bold;font-size:25.33333397px;font-family:'Open Sans';fill:#f5b720;stroke:#ffffff;stroke-width:4"><tspan
                 x="8"
                 dy="0"
                 id="tspan325">server</tspan></text>
            <text
               y="29.66"
               font-size="19pt"
               font-weight="bold"
               transform="matrix(0.707,0.409,-0.707,0.409,0,0)"
               xml:space="preserve"
               id="text331"
               style="font-weight:bold;font-size:25.33333397px;font-family:'Open Sans';fill:#f5b720"><tspan
                 x="8"
                 dy="0"
                 id="tspan329">server</tspan></text>
          </svg>
        </g>
      </g>
      <g
         id="g349"
         style="opacity:1">
        <g
           id="ac3a8b45-d5bb-4866-a353-2ec7998230e0">
          <svg
             x="336"
             y="268"
             overflow="visible"
             version="1.1"
             id="svg346"
             width="100%"
             height="100%"
             style="overflow:visible">
            <text
               y="29.66"
               font-size="19pt"
               font-weight="bold"
               transform="matrix(0.707,0.409,-0.707,0.409,0,0)"
               xml:space="preserve"
               id="text340"
               style="font-weight:bold;font-size:25.33333397px;font-family:'Open Sans';fill:#f5b720;stroke:#ffffff;stroke-width:4"><tspan
                 x="8"
                 dy="0"
                 id="tspan338">server</tspan></text>
            <text
               y="29.66"
               font-size="19pt"
               font-weight="bold"
               transform="matrix(0.707,0.409,-0.707,0.409,0,0)"
               xml:space="preserve"
               id="text344"
               style="font-weight:bold;font-size:25.33333397px;font-family:'Open Sans';fill:#f5b720"><tspan
                 x="8"
                 dy="0"
                 id="tspan342">server</tspan></text>
          </svg>
        </g>
      </g>
      <g
         id="g362"
         style="opacity:1">
        <g
           id="2f9294c8-ad20-48fc-ad4c-44384958c962">
          <svg
             x="400"
             y="250"
             overflow="visible"
             version="1.1"
             id="svg359"
             width="100%"
             height="100%"
             style="overflow:visible">
            <text
               y="36.5"
               font-size="25pt"
               font-weight="bold"
               transform="matrix(0.707,0.409,-0.707,0.409,0,0)"
               xml:space="preserve"
               id="text353"
               style="font-weight:bold;font-size:33.33333206px;font-family:'Open Sans';fill:#000000;stroke:#ffffff;stroke-width:4"><tspan
                 x="8"
                 dy="0"
                 id="tspan351">europe</tspan></text>
            <text
               y="36.5"
               font-size="25pt"
               font-weight="bold"
               transform="matrix(0.707,0.409,-0.707,0.409,0,0)"
               xml:space="preserve"
               id="text357"
               style="font-weight:bold;font-size:33.33333206px;font-family:'Open Sans';fill:#000000"><tspan
                 x="8"
                 dy="0"
                 id="tspan355">europe</tspan></text>
          </svg>
        </g>
      </g>
      <g
         id="g375"
         style="opacity:1">
        <g
           id="843f53d6-9eeb-4da2-9382-2d3720737b76">
          <svg
             x="64"
             y="56"
             overflow="visible"
             version="1.1"
             id="svg372"
             width="100%"
             height="100%"
             style="overflow:visible">
            <text
               y="36.5"
               font-size="25pt"
               font-weight="bold"
               transform="matrix(0.707,0.409,-0.707,0.409,0,0)"
               xml:space="preserve"
               id="text366"
               style="font-weight:bold;font-size:33.33333206px;font-family:'Open Sans';fill:#000000;stroke:#ffffff;stroke-width:4"><tspan
                 x="8"
                 dy="0"
                 id="tspan364">united states</tspan></text>
            <text
               y="36.5"
               font-size="25pt"
               font-weight="bold"
               transform="matrix(0.707,0.409,-0.707,0.409,0,0)"
               xml:space="preserve"
               id="text370"
               style="font-weight:bold;font-size:33.33333206px;font-family:'Open Sans';fill:#000000"><tspan
                 x="8"
                 dy="0"
                 id="tspan368">united states</tspan></text>
          </svg>
        </g>
      </g>
      <g
         id="g388"
         style="opacity:1">
        <g
           id="6ace1180-b9c0-49d4-a83b-340a58ab78b2">
          <svg
             x="-332"
             y="440"
             overflow="visible"
             version="1.1"
             id="svg385"
             width="100%"
             height="100%"
             style="overflow:visible">
            <text
               y="23.959999"
               font-size="14pt"
               font-weight="bold"
               transform="matrix(0.707,-0.409,0.707,0.409,0,0)"
               xml:space="preserve"
               id="text379"
               style="font-weight:bold;font-size:18.66666603px;font-family:'Open Sans';fill:#4286c5;stroke:#ffffff;stroke-width:4"><tspan
                 x="8"
                 dy="0"
                 id="tspan377">http request</tspan></text>
            <text
               y="23.959999"
               font-size="14pt"
               font-weight="bold"
               transform="matrix(0.707,-0.409,0.707,0.409,0,0)"
               xml:space="preserve"
               id="text383"
               style="font-weight:bold;font-size:18.66666603px;font-family:'Open Sans';fill:#4286c5"><tspan
                 x="8"
                 dy="0"
                 id="tspan381">http request</tspan></text>
          </svg>
        </g>
      </g>
    </g>
    <g
       id="g392" />
  </g>
</svg>
