<?xml version="1.0" standalone="no"?>
<!DOCTYPE svg PUBLIC "-//W3C//DTD SVG 1.1//EN"
  "http://www.w3.org/Graphics/SVG/1.1/DTD/svg11.dtd">
<svg version="1.1" xmlns="http://www.w3.org/2000/svg" xmlns:xlink="http://www.w3.org/1999/xlink" width="1920" height="1025" viewBox="-768 14 1280 695" id="ccdiagram"><filter id="grayscale"><feColorMatrix type="matrix" values="0.3333 0.3333 0.3333 0 0 0.3333 0.3333 0.3333 0 0 0.3333 0.3333 0.3333 0 0 0 0 0 1 0"></feColorMatrix></filter><g><g pointer-events="auto"><g opacity="1"><g><g><polygon points="384 229, 512 303, 512 340, 192 525, 128 525, 0 451, 0 414, 320 229" fill="#000000" opacity="0.2"></polygon><polygon points="384 222, 512 296, 512 333, 192 518, 128 518, 0 444, 0 407, 320 222" fill="#ffffff" stroke-width="2" stroke="#818181"></polygon><polygon points="352 241, 480 315, 160 500, 32 426" fill="rgba(0, 0, 0, 0)" stroke-width="0" stroke="#818181"></polygon></g></g></g><g opacity="1"><g><g><polygon points="32 26, 288 174, 288 211, -32 396, -96 396, -352 248, -352 211, -32 26" fill="#000000" opacity="0.2"></polygon><polygon points="32 19, 288 167, 288 204, -32 389, -96 389, -352 241, -352 204, -32 19" fill="#ffffff" stroke-width="2" stroke="#818181"></polygon><polygon points="0 37, 256 185, -64 370, -320 222" fill="rgba(0, 0, 0, 0)" stroke-width="0" stroke="#818181"></polygon></g></g></g></g><g pointer-events="auto"></g><g></g><g pointer-events="auto"></g><g></g><g pointer-events="auto"><g opacity="1"><g id="604eefb1-b37a-4cb9-b0f3-ae7ace8c580e"><svg x="16" y="65" overflow="visible"><polygon points="0 0, 193 111, 129 148, -64 37" fill="#f8de9e"></polygon><polygon points="0 0, 193 111, 129 148, -64 37" fill="none" stroke-width="20" stroke="#f8de9e" opacity="1"></polygon><g cursor="nwse-resize"><polygon points="0 0, -19 -11, 13 -30, -83 -11, -115 44, -83 26, -64 37" fill="#f8de9e"></polygon><polygon points="193 111, 212 122, 244 104, 212 159, 116 178, 148 159, 129 148" fill="#f8de9e"></polygon></g></svg></g></g><g opacity="1"><g id="3439ca90-8496-4630-8f0b-cf2682818612"><svg x="368" y="268" overflow="visible"><polygon points="0 0, 64 37, 0 74, -64 37" fill="#f8de9e"></polygon><polygon points="0 0, 64 37, 0 74, -64 37" fill="none" stroke-width="20" stroke="#f8de9e" opacity="1"></polygon><g cursor="nwse-resize"><polygon points="0 0, -19 -11, 13 -30, -83 -11, -115 44, -83 26, -64 37" fill="#f8de9e"></polygon><polygon points="64 37, 83 48, 115 30, 83 85, -13 104, 19 85, 0 74" fill="#f8de9e"></polygon></g></svg></g></g></g><g pointer-events="none"></g><g pointer-events="auto"><g><g cursor="cell"><line x1="-480" y1="537" x2="-410" y2="496" stroke="red" stroke-width="8" opacity="0"></line><line x1="-480" y1="537" x2="-410" y2="496" stroke="#4286c5" stroke-width="2" stroke-linecap="round"></line><polygon points="-400 490, -426 496, -412 497, -409 505, -400 490" stroke-linejoin="round" fill="#4286c5" stroke="#4286c5" stroke-width="1"></polygon></g></g><g><g cursor="cell"><line x1="288" y1="352" x2="326" y2="329" stroke="red" stroke-width="8" opacity="0"></line><line x1="288" y1="352" x2="326" y2="329" stroke="#9e9e9e" stroke-width="2" stroke-linecap="round"></line><polygon points="336 324, 310 329, 324 331, 327 339, 336 324" stroke-linejoin="round" fill="#9e9e9e" stroke="#9e9e9e" stroke-width="1"></polygon></g></g><g><g cursor="cell"><line x1="-227" y1="390" x2="-224" y2="241" stroke="red" stroke-width="8" opacity="0"></line><line x1="-227" y1="390" x2="-224" y2="241" stroke="#4286c5" stroke-width="2" stroke-dasharray="8,6" stroke-linecap="butt"></line></g></g><g><g cursor="cell"><line x1="-227" y1="390" x2="128" y2="444" stroke="red" stroke-width="8" opacity="0"></line><line x1="-227" y1="390" x2="128" y2="444" stroke="#4286c5" stroke-width="2" stroke-dasharray="8,6" stroke-linecap="butt"></line></g></g><g><g cursor="cell"><line x1="-227" y1="390" x2="-42" y2="283" stroke="red" stroke-width="8" opacity="0"></line><line x1="-227" y1="390" x2="-42" y2="283" stroke="#4286c5" stroke-width="2" stroke-dasharray="8,6" stroke-linecap="butt"></line><polygon points="-32 278, -58 283, -44 285, -41 292, -32 278" stroke-linejoin="round" fill="#4286c5" stroke="#4286c5" stroke-width="1"></polygon></g></g><g><g cursor="cell"><line x1="-64" y1="148" x2="-26" y2="126" stroke="red" stroke-width="8" opacity="0"></line><line x1="-64" y1="148" x2="-26" y2="126" stroke="#9e9e9e" stroke-width="2" stroke-linecap="round"></line><polygon points="-16 120, -42 126, -28 127, -25 135, -16 120" stroke-linejoin="round" fill="#9e9e9e" stroke="#9e9e9e" stroke-width="1"></polygon></g></g><g><g cursor="cell"><line x1="64" y1="222" x2="103" y2="200" stroke="red" stroke-width="8" opacity="0"></line><line x1="64" y1="222" x2="103" y2="200" stroke="#9e9e9e" stroke-width="2" stroke-linecap="round"></line><polygon points="113 195, 87 200, 100 202, 103 209, 113 195" stroke-linejoin="round" fill="#9e9e9e" stroke="#9e9e9e" stroke-width="1"></polygon></g></g><g><g cursor="cell"><line x1="-640" y1="629" x2="-586" y2="598" stroke="red" stroke-width="8" opacity="0"></line><line x1="-640" y1="629" x2="-586" y2="598" stroke="#9e9e9e" stroke-width="2" stroke-linecap="round"></line><polygon points="-576 592, -602 597, -588 599, -585 607, -576 592" stroke-linejoin="round" fill="#9e9e9e" stroke="#9e9e9e" stroke-width="1"></polygon></g></g><g><g cursor="cell"><line x1="-224" y1="241" x2="-170" y2="209" stroke="red" stroke-width="8" opacity="0"></line><line x1="-224" y1="241" x2="-170" y2="209" stroke="#4286c5" stroke-width="2" stroke-dasharray="8,6" stroke-linecap="butt"></line><polygon points="-160 204, -186 209, -172 211, -169 218, -160 204" stroke-linejoin="round" fill="#4286c5" stroke="#4286c5" stroke-width="1"></polygon></g></g><g><g cursor="cell"><line x1="128" y1="444" x2="182" y2="413" stroke="red" stroke-width="8" opacity="0"></line><line x1="128" y1="444" x2="182" y2="413" stroke="#4286c5" stroke-width="2" stroke-dasharray="8,6" stroke-linecap="butt"></line><polygon points="192 407, 166 412, 180 414, 183 422, 192 407" stroke-linejoin="round" fill="#4286c5" stroke="#4286c5" stroke-width="1"></polygon></g></g></g><g pointer-events="auto"><g opacity="1"><g id="630f438e-53de-4454-ab3d-9df5b0311e16" transform="translate(0 0)"><svg x="-48" y="28" height="111.429" width="128" viewBox="0 0 33.867 29.482"><g fill-rule="evenodd"><path d="M.265 19.553l16.668-9.624 16.67 9.624" fill="none" stroke="#83838a" stroke-width=".265"></path><path d="M16.933.306v9.623" fill="none" stroke="#83838a" stroke-width=".267"></path><path d="M16.933 19.553v9.624l16.67-9.624V9.929z" fill="#b8b8bb" fill-opacity=".392" stroke-width=".267"></path><path d="M.265 9.93v9.623l16.668 9.624v-9.624z" fill="#d2d2d4" fill-opacity=".392" stroke-width=".267"></path><path d="M.265 9.93L16.933.305l16.67 9.623-16.67 9.624z" fill="#ececed" fill-opacity=".392" stroke-width=".267"></path><path d="M.265 9.93l16.668 9.623 16.67-9.624M16.933 19.553v9.624" fill="none" stroke="#83838a" stroke-width=".265"></path><path d="M.265 9.93v9.623l16.668 9.624 16.67-9.624V9.929L16.932.306z" fill="none" stroke="#000000" stroke-width=".529"></path></g></svg></g></g><g opacity="1"><g id="a74cf45a-47a8-4140-bc69-bded33ced160" transform="translate(0 0)"><svg x="81" y="102" height="111.429" width="128" viewBox="0 0 33.867 29.482"><g fill-rule="evenodd"><path d="M.265 19.553l16.668-9.624 16.67 9.624" fill="none" stroke="#83838a" stroke-width=".265"></path><path d="M16.933.306v9.623" fill="none" stroke="#83838a" stroke-width=".267"></path><path d="M16.933 19.553v9.624l16.67-9.624V9.929z" fill="#b8b8bb" fill-opacity=".392" stroke-width=".267"></path><path d="M.265 9.93v9.623l16.668 9.624v-9.624z" fill="#d2d2d4" fill-opacity=".392" stroke-width=".267"></path><path d="M.265 9.93L16.933.305l16.67 9.623-16.67 9.624z" fill="#ececed" fill-opacity=".392" stroke-width=".267"></path><path d="M.265 9.93l16.668 9.623 16.67-9.624M16.933 19.553v9.624" fill="none" stroke="#83838a" stroke-width=".265"></path><path d="M.265 9.93v9.623l16.668 9.624 16.67-9.624V9.929L16.932.306z" fill="none" stroke="#000000" stroke-width=".529"></path></g></svg></g></g><g opacity="1"><g id="66cb35c4-eb30-4049-8e15-1f6c8e72557a" transform="translate(0 0)"><svg x="304" y="231" height="111.429" width="128" viewBox="0 0 33.867 29.482"><g fill-rule="evenodd"><path d="M.265 19.553l16.668-9.624 16.67 9.624" fill="none" stroke="#83838a" stroke-width=".265"></path><path d="M16.933.306v9.623" fill="none" stroke="#83838a" stroke-width=".267"></path><path d="M16.933 19.553v9.624l16.67-9.624V9.929z" fill="#b8b8bb" fill-opacity=".392" stroke-width=".267"></path><path d="M.265 9.93v9.623l16.668 9.624v-9.624z" fill="#d2d2d4" fill-opacity=".392" stroke-width=".267"></path><path d="M.265 9.93L16.933.305l16.67 9.623-16.67 9.624z" fill="#ececed" fill-opacity=".392" stroke-width=".267"></path><path d="M.265 9.93l16.668 9.623 16.67-9.624M16.933 19.553v9.624" fill="none" stroke="#83838a" stroke-width=".265"></path><path d="M.265 9.93v9.623l16.668 9.624 16.67-9.624V9.929L16.932.306z" fill="none" stroke="#000000" stroke-width=".529"></path></g></svg></g></g><g opacity="1"><g id="8741f916-7552-4d11-8323-aac471b6df09" transform="translate(0 0)"><svg x="-192" y="111" height="111" width="128" fill-rule="evenodd"><path d="M64 74v37l64-37V37L64 74z" fill="#26527b"></path><path d="M0 37v37l64 37V74L0 37z" fill="#326ca2"></path><path d="M0 37L64 0l64 37-64 37L0 37z" fill="#4286c5"></path><path d="M64 73.407l62.111-35.86.514.889-62.487 36.078h-.276L.743 38.072l.514-.89L64 73.407z" fill="#deeaf5"></path><path d="M63.486 74h1.027v36h-1.027z" fill="#deeaf5"></path><path d="M128 37v37l-64 37L0 74V37L64 0l64 37zM2.054 38.185v34.63L64 108.627l61.946-35.812v-34.63L64 2.373 2.054 38.185z" fill="#000000"></path></svg></g></g><g opacity="1"><g id="4f366276-eb41-4623-bfb9-34dc61f2ea81" transform="translate(0 0)"><svg x="-64" y="185" height="111" width="128" fill-rule="evenodd"><path d="M64 74v37l64-37V37L64 74z" fill="#26527b"></path><path d="M0 37v37l64 37V74L0 37z" fill="#326ca2"></path><path d="M0 37L64 0l64 37-64 37L0 37z" fill="#4286c5"></path><path d="M64 73.407l62.111-35.86.514.889-62.487 36.078h-.276L.743 38.072l.514-.89L64 73.407z" fill="#deeaf5"></path><path d="M63.486 74h1.027v36h-1.027z" fill="#deeaf5"></path><path d="M128 37v37l-64 37L0 74V37L64 0l64 37zM2.054 38.185v34.63L64 108.627l61.946-35.812v-34.63L64 2.373 2.054 38.185z" fill="#000000"></path></svg></g></g><g opacity="1"><g id="d5a79aea-81d0-4273-a282-28b34cfcdb3f" transform="translate(0 0)"><svg x="160" y="315" height="111" width="128" fill-rule="evenodd"><path d="M64 74v37l64-37V37L64 74z" fill="#26527b"></path><path d="M0 37v37l64 37V74L0 37z" fill="#326ca2"></path><path d="M0 37L64 0l64 37-64 37L0 37z" fill="#4286c5"></path><path d="M64 73.407l62.111-35.86.514.889-62.487 36.078h-.276L.743 38.072l.514-.89L64 73.407z" fill="#deeaf5"></path><path d="M63.486 74h1.027v36h-1.027z" fill="#deeaf5"></path><path d="M128 37v37l-64 37L0 74V37L64 0l64 37zM2.054 38.185v34.63L64 108.627l61.946-35.812v-34.63L64 2.373 2.054 38.185z" fill="#000000"></path></svg></g></g><g opacity="1"><g id="cdfc0fd5-034f-4eae-a701-7d9a9d4f5ada" transform="translate(0 0)"><svg x="-448" y="332" height="165.108" width="227" viewBox="0 0 60.06 43.685"><path d="M2647.212-1556.832l-31.177 18-31.177-18v-36l31.177-18 31.177 18z" fill="#ffe608" stroke="#6e6300" stroke-width="1.723" transform="matrix(0 -.16718 -.14432 -.08359 -188.401 313.367)"></path><path d="M2.895 20.22l5.302 3.066 33.275-19.33L36.276.947z" fill="#ffeb3b" fill-rule="evenodd" stroke="#6e6300" stroke-width=".26458400000000004"></path><path d="M2647.212-1556.832l-31.177 18-31.177-18v-36l31.177-18 31.177 18z" fill="#ffe608" stroke="#6e6300" stroke-width="1.723" transform="matrix(0 -.16718 -.14432 -.08359 -213.883 331.997)"></path><path d="M2647.212-1556.832l-31.177 18-31.177-18v-36l31.177-18 31.177 18z" fill="#ffe608" stroke="#6e6300" stroke-width="1.703" transform="matrix(0 -.16718 -.14432 -.08359 -213.99 342.365)"></path><path d="M2647.212-1556.832l-31.177 18-31.177-18v-36l31.177-18 31.177 18z" fill="#ffe608" stroke="#6e6300" stroke-width="1.703" transform="matrix(0 -.16718 -.14432 -.08359 -221.782 332.64)"></path><path d="M2647.212-1556.832l-31.177 18-31.177-18v-36l31.177-18 31.177 18z" fill="#ffe608" stroke="#6e6300" stroke-width="1.723" transform="matrix(0 -.16718 -.14432 -.08359 -180.502 312.725)"></path><path d="M2647.212-1556.832l-31.177 18-31.177-18v-36l31.177-18 31.177 18z" fill="#ffe608" stroke="#6e6300" stroke-width="1.723" transform="matrix(0 -.16718 -.14432 -.08359 -180.608 323.092)"></path><path d="M2647.212-1556.832l-31.177 18-31.177-18v-36l31.177-18 31.177 18z" fill="#ffe608" stroke="#6e6300" stroke-width="1.723" transform="matrix(0 -.16718 -.14432 -.08359 -172.709 322.45)"></path><path d="M23.718 32.238l33.38-19.272M26.381 39.03l33.381-19.273M23.783 42.737l33.382-19.272M15.884 43.379l33.381-19.273M18.588 29.304l33.295-19.35" fill="none" fill-rule="evenodd" stroke="#6e6300" stroke-width=".26756057000000005"></path><path d="M23.783 32.313l2.598 6.717 33.381-19.273-2.663-6.791z" fill="#d4be00" fill-rule="evenodd" stroke="#6e6300" stroke-width=".26458400000000004"></path><path d="M2647.212-1556.832l-31.177 18-31.177-18v-36l31.177-18 31.177 18z" fill="#ffe608" stroke="#6e6300" stroke-width="1.703" transform="matrix(0 -.16718 -.14432 -.08359 -206.09 341.723)"></path><path d="M15.99 22.587L49.371 3.315M10.795 19.578L44.176.306M2.855 20.193L36.235.92" fill="none" fill-rule="evenodd" stroke="#6e6300" stroke-width=".26756057000000005"></path><path d="M26.381 39.03l-2.598 3.707 33.382-19.272 2.597-3.708z" fill="#a19100" fill-rule="evenodd" stroke="#6e6300" stroke-width=".26458400000000004"></path><path d="M18.482 39.672l-2.598 3.707 4.51-2.604z" fill="#a19100" fill-rule="evenodd" stroke="#6e6300" stroke-width=".26756057000000005"></path><path d="M18.588 29.304l5.195 3.01L57.1 12.965l-5.216-3.012z" fill="#ffeb3b" fill-rule="evenodd" stroke="#6e6300" stroke-width=".26458400000000004"></path><path d="M15.99 22.587l2.555 6.678 33.338-19.31-2.512-6.64z" fill="#d4be00" fill-rule="evenodd" stroke="#6e6300" stroke-width=".26458400000000004"></path><path d="M21.836 11.715l-.927.535-.463-.267.927-.535zm1.622-.134l-1.854 1.07-.463-.267 1.854-1.07zm-.232 2.275l-.231.134-3.708-2.141 2.78-1.606.233.134-2.55 1.472 3.477 2.007zm.464-1.606l-1.39.803-.464-.267 1.39-.803zm1.39 0l-2.085 1.204-.464-.267 2.086-1.204z" fill="#4286c5" stroke-width="1.012"></path><path d="M10.795 19.578l5.195 3.01L49.371 3.314 44.176.305z" fill="#ffeb3b" fill-rule="evenodd" stroke="#6e6300" stroke-width=".26458400000000004"></path><path d="M2647.212-1556.832l-31.177 18-31.177-18v-36l31.177-18 31.177 18z" fill="#5b5b62" stroke="#000000" stroke-width="2.392" transform="matrix(0 -.11907 -.10278 -.05953 -148.476 244.02)"></path><path d="M.298 23.927l2.597-3.707L36.276.947l3.39 1.963 4.51-2.604 5.195 3.009 2.512 6.64 5.216 3.01 2.663 6.792-2.597 3.708-33.382 19.272-3.394-1.966-4.505 2.608-5.195-3.01-2.598-6.716-5.196-3.009z" fill="none" fill-rule="evenodd" stroke="#000000" stroke-width=".5291680000000001"></path><path d="M2647.212-1556.832l-31.177 18-31.177-18v-36l31.177-18 31.177 18z" fill="#5b5b62" stroke="#000000" stroke-width="2.392" transform="matrix(0 -.11907 -.10278 -.05953 -140.683 253.747)"></path><path d="M2647.212-1556.832l-31.177 18-31.177-18v-36l31.177-18 31.177 18z" fill="#5b5b62" stroke="#000000" stroke-width="2.392" transform="matrix(0 -.11907 -.10278 -.05953 -148.583 254.388)"></path><path d="M2647.212-1556.832l-31.177 18-31.177-18v-36l31.177-18 31.177 18z" fill="#5b5b62" stroke="#000000" stroke-width="2.392" transform="matrix(0 -.11907 -.10278 -.05953 -156.376 244.663)"></path><path d="M29.215 11.067l-.927.535-.464-.267.927-.535zm1.622-.134l-1.854 1.07-.464-.267 1.854-1.07zm-.232 2.275l-.232.134-3.708-2.141 2.781-1.606.232.134-2.55 1.472 3.477 2.007zm.464-1.606l-1.391.803-.463-.267 1.39-.803zm1.39 0l-2.086 1.205-.463-.268 2.086-1.204zM37.148 20.465l-.927.535-.463-.268.927-.535zm1.623-.134l-1.855 1.07-.463-.267 1.854-1.07zm-.232 2.275l-.232.133-3.708-2.14 2.78-1.606.233.134-2.55 1.472 3.477 2.007zM39.002 21l-1.39.803-.464-.268 1.39-.803zm1.39 0l-2.085 1.204-.463-.268 2.085-1.204z" fill="#4286c5" stroke-width="1.012"></path></svg></g></g><g opacity="1"><g id="11abc37a-473a-445f-b2f4-ba60cff0cf28" transform="translate(0 0)"><svg x="-608" y="500" height="111" width="128" fill-rule="evenodd"><path d="M64 74v37l64-37V37L64 74z" fill="#26527b"></path><path d="M0 37v37l64 37V74L0 37z" fill="#326ca2"></path><path d="M0 37L64 0l64 37-64 37L0 37z" fill="#4286c5"></path><path d="M64 73.407l62.111-35.86.514.889-62.487 36.078h-.276L.743 38.072l.514-.89L64 73.407z" fill="#deeaf5"></path><path d="M63.486 74h1.027v36h-1.027z" fill="#deeaf5"></path><path d="M128 37v37l-64 37L0 74V37L64 0l64 37zM2.054 38.185v34.63L64 108.627l61.946-35.812v-34.63L64 2.373 2.054 38.185z" fill="#000000"></path></svg></g></g><g opacity="1"><g id="816d5eeb-6430-4f0f-ac40-bca7200152b0" transform="translate(0 0)"><svg x="-768" y="592" height="111.429" width="128" viewBox="0 0 33.867 29.482"><g fill-rule="evenodd"><path d="M.265 19.553l16.668-9.624 16.67 9.624" fill="none" stroke="#83838a" stroke-width=".265"></path><path d="M16.933.306v9.623" fill="none" stroke="#83838a" stroke-width=".267"></path><path d="M16.933 19.553v9.624l16.67-9.624V9.929z" fill="#b8b8bb" fill-opacity=".392" stroke-width=".267"></path><path d="M.265 9.93v9.623l16.668 9.624v-9.624z" fill="#d2d2d4" fill-opacity=".392" stroke-width=".267"></path><path d="M.265 9.93L16.933.305l16.67 9.623-16.67 9.624z" fill="#ececed" fill-opacity=".392" stroke-width=".267"></path><path d="M.265 9.93l16.668 9.623 16.67-9.624M16.933 19.553v9.624" fill="none" stroke="#83838a" stroke-width=".265"></path><path d="M.265 9.93v9.623l16.668 9.624 16.67-9.624V9.929L16.932.306z" fill="none" stroke="#000000" stroke-width=".529"></path></g></svg></g></g></g><g pointer-events="auto"></g><g pointer-events="auto"></g><g pointer-events="auto"><g opacity="1"><g id="38753f2c-d9f6-466c-a46c-c436fa1d8075"><svg x="-768" y="629" overflow="visible"><text stroke="#ffffff" stroke-width="4" font-family="arial" y="30.799999999999997" font-size="20pt" fill="#9e9e9e" font-weight="bold" transform="matrix(0.707, 0.409, 0, 0.816, 0, 0)" xml:space="preserve"><tspan x="8" dy="0">client</tspan></text><text font-family="arial" y="30.799999999999997" font-size="20pt" fill="#9e9e9e" font-weight="bold" transform="matrix(0.707, 0.409, 0, 0.816, 0, 0)" xml:space="preserve"><tspan x="8" dy="0">client</tspan></text></svg></g></g><g opacity="1"><g id="f0865ce0-e05f-4b25-b040-0f05ce57c588"><svg x="-48" y="65" overflow="visible"><text stroke="#ffffff" stroke-width="4" font-family="arial" y="29.659999999999997" font-size="19pt" fill="#9e9e9e" font-weight="bold" transform="matrix(0.707, 0.409, 0, 0.816, 0, 0)" xml:space="preserve"><tspan x="8" dy="0">server</tspan></text><text font-family="arial" y="29.659999999999997" font-size="19pt" fill="#9e9e9e" font-weight="bold" transform="matrix(0.707, 0.409, 0, 0.816, 0, 0)" xml:space="preserve"><tspan x="8" dy="0">server</tspan></text></svg></g></g><g opacity="1"><g id="1890cac7-cc5c-4124-9afb-0fa118fde95e"><svg x="81" y="139" overflow="visible"><text stroke="#ffffff" stroke-width="4" font-family="arial" y="29.659999999999997" font-size="19pt" fill="#9e9e9e" font-weight="bold" transform="matrix(0.707, 0.409, 0, 0.816, 0, 0)" xml:space="preserve"><tspan x="8" dy="0">server</tspan></text><text font-family="arial" y="29.659999999999997" font-size="19pt" fill="#9e9e9e" font-weight="bold" transform="matrix(0.707, 0.409, 0, 0.816, 0, 0)" xml:space="preserve"><tspan x="8" dy="0">server</tspan></text></svg></g></g><g opacity="1"><g id="ac3a8b45-d5bb-4866-a353-2ec7998230e0"><svg x="304" y="268" overflow="visible"><text stroke="#ffffff" stroke-width="4" font-family="arial" y="29.659999999999997" font-size="19pt" fill="#9e9e9e" font-weight="bold" transform="matrix(0.707, 0.409, 0, 0.816, 0, 0)" xml:space="preserve"><tspan x="8" dy="0">server</tspan></text><text font-family="arial" y="29.659999999999997" font-size="19pt" fill="#9e9e9e" font-weight="bold" transform="matrix(0.707, 0.409, 0, 0.816, 0, 0)" xml:space="preserve"><tspan x="8" dy="0">server</tspan></text></svg></g></g><g opacity="1"><g id="2f9294c8-ad20-48fc-ad4c-44384958c962" transform="translate(0 0)"><svg x="64" y="426" overflow="visible"><text stroke="#ffffff" stroke-width="4" font-family="arial" y="36.5" font-size="25pt" fill="#9e9e9e" font-weight="bold" transform="matrix(0.707 0.409 -0.707 0.409 0 0)" xml:space="preserve"><tspan x="8" dy="0">region B</tspan></text><text font-family="arial" y="36.5" font-size="25pt" fill="#9e9e9e" font-weight="bold" transform="matrix(0.707 0.409 -0.707 0.409 0 0)" xml:space="preserve"><tspan x="8" dy="0">region B</tspan></text></svg></g></g><g opacity="1"><g id="843f53d6-9eeb-4da2-9382-2d3720737b76" transform="translate(0 0)"><svg x="-240" y="250" overflow="visible"><text stroke="#ffffff" stroke-width="4" font-family="arial" y="36.5" font-size="25pt" fill="#9e9e9e" font-weight="bold" transform="matrix(0.707 0.409 -0.707 0.409 0 0)" xml:space="preserve"><tspan x="8" dy="0">region A</tspan></text><text font-family="arial" y="36.5" font-size="25pt" fill="#9e9e9e" font-weight="bold" transform="matrix(0.707 0.409 -0.707 0.409 0 0)" xml:space="preserve"><tspan x="8" dy="0">region A</tspan></text></svg></g></g><g opacity="1"><g id="8e854647-60f2-48b0-a228-6e9f7059326e"><svg x="-412" y="403" overflow="visible"><text stroke="#ffffff" stroke-width="4" font-family="arial" y="28.52" font-size="18pt" fill="#4286c5" font-weight="bold" transform="matrix(0.707 -0.409 0.707 0.409 0 0)" xml:space="preserve"><tspan x="8" dy="0">mercure HUB</tspan></text><text font-family="arial" y="28.52" font-size="18pt" fill="#4286c5" font-weight="bold" transform="matrix(0.707 -0.409 0.707 0.409 0 0)" xml:space="preserve"><tspan x="8" dy="0">mercure HUB</tspan></text></svg></g></g><g opacity="1"><g id="49228e13-0222-4671-a195-efb509839c5f" transform="translate(0 0)"><svg x="-492" y="514" overflow="visible"><text stroke="#ffffff" stroke-width="4" font-family="arial" y="23.96" font-size="14pt" fill="#4286c5" font-weight="bold" transform="matrix(0.707 -0.409 0.707 0.409 0 0)" xml:space="preserve"><tspan x="8" dy="0">POST</tspan></text><text font-family="arial" y="23.96" font-size="14pt" fill="#4286c5" font-weight="bold" transform="matrix(0.707 -0.409 0.707 0.409 0 0)" xml:space="preserve"><tspan x="8" dy="0">POST</tspan></text></svg></g></g><g opacity="1"><g id="11665e1a-7fbc-4055-8c36-5ed65702fbca" transform="translate(0 0)"><svg x="-662" y="613" overflow="visible"><text stroke="#ffffff" stroke-width="4" font-family="arial" y="23.96" font-size="14pt" fill="#9e9e9e" font-weight="bold" transform="matrix(0.707 -0.409 0.707 0.409 0 0)" xml:space="preserve"><tspan x="8" dy="0">HTTP</tspan></text><text font-family="arial" y="23.96" font-size="14pt" fill="#9e9e9e" font-weight="bold" transform="matrix(0.707 -0.409 0.707 0.409 0 0)" xml:space="preserve"><tspan x="8" dy="0">HTTP</tspan></text></svg></g></g><g opacity="1"><g id="8f2f67c6-e5fb-4a78-bc6d-a4a50a233882"><svg x="-560" y="509" overflow="visible"><text stroke="#ffffff" stroke-width="4" font-family="arial" y="26.24" font-size="16pt" fill="#4286c5" font-weight="bold" transform="matrix(0.707 0.409 -0.707 0.409 0 0)" xml:space="preserve"><tspan x="8" dy="0">listen</tspan></text><text font-family="arial" y="26.24" font-size="16pt" fill="#4286c5" font-weight="bold" transform="matrix(0.707 0.409 -0.707 0.409 0 0)" xml:space="preserve"><tspan x="8" dy="0">listen</tspan></text></svg></g></g><g opacity="1"><g id="8f1be700-839d-45ec-81bd-bc522c0cb217"><svg x="-144" y="120" overflow="visible"><text stroke="#ffffff" stroke-width="4" font-family="arial" y="26.24" font-size="16pt" fill="#4286c5" font-weight="bold" transform="matrix(0.707 0.409 -0.707 0.409 0 0)" xml:space="preserve"><tspan x="8" dy="0">replay</tspan></text><text font-family="arial" y="26.24" font-size="16pt" fill="#4286c5" font-weight="bold" transform="matrix(0.707 0.409 -0.707 0.409 0 0)" xml:space="preserve"><tspan x="8" dy="0">replay</tspan></text></svg></g></g><g opacity="1"><g id="4c45c909-1616-45d8-9d12-262f5fad1c58"><svg x="208" y="324" overflow="visible"><text stroke="#ffffff" stroke-width="4" font-family="arial" y="26.24" font-size="16pt" fill="#4286c5" font-weight="bold" transform="matrix(0.707 0.409 -0.707 0.409 0 0)" xml:space="preserve"><tspan x="8" dy="0">replay</tspan></text><text font-family="arial" y="26.24" font-size="16pt" fill="#4286c5" font-weight="bold" transform="matrix(0.707 0.409 -0.707 0.409 0 0)" xml:space="preserve"><tspan x="8" dy="0">replay</tspan></text></svg></g></g><g opacity="1"><g id="62c03b3f-0481-46d9-a66c-6cb0593a8d9c" transform="translate(0 0)"><svg x="-240" y="213" overflow="visible"><text stroke="#ffffff" stroke-width="4" font-family="arial" y="23.96" font-size="14pt" fill="#4286c5" font-weight="bold" transform="matrix(0.707 -0.409 0.707 0.409 0 0)" xml:space="preserve"><tspan x="8" dy="0">SSE</tspan></text><text font-family="arial" y="23.96" font-size="14pt" fill="#4286c5" font-weight="bold" transform="matrix(0.707 -0.409 0.707 0.409 0 0)" xml:space="preserve"><tspan x="8" dy="0">SSE</tspan></text></svg></g></g><g opacity="1"><g id="91890afc-beaa-4e4a-9ef4-f788e517b2fb" transform="translate(0 0)"><svg x="112" y="416" overflow="visible"><text stroke="#ffffff" stroke-width="4" font-family="arial" y="23.96" font-size="14pt" fill="#4286c5" font-weight="bold" transform="matrix(0.707 -0.409 0.707 0.409 0 0)" xml:space="preserve"><tspan x="8" dy="0">SSE</tspan></text><text font-family="arial" y="23.96" font-size="14pt" fill="#4286c5" font-weight="bold" transform="matrix(0.707 -0.409 0.707 0.409 0 0)" xml:space="preserve"><tspan x="8" dy="0">SSE</tspan></text></svg></g></g><g opacity="1"><g id="87650628-a54b-46c2-af16-dfa94902cacd" transform="translate(0 0)"><svg x="-96" y="130" overflow="visible"><text stroke="#ffffff" stroke-width="4" font-family="arial" y="23.96" font-size="14pt" fill="#9e9e9e" font-weight="bold" transform="matrix(0.707 -0.409 0.707 0.409 0 0)" xml:space="preserve"><tspan x="8" dy="0">HTTP</tspan></text><text font-family="arial" y="23.96" font-size="14pt" fill="#9e9e9e" font-weight="bold" transform="matrix(0.707 -0.409 0.707 0.409 0 0)" xml:space="preserve"><tspan x="8" dy="0">HTTP</tspan></text></svg></g></g><g opacity="1"><g id="af487567-7423-462d-bc5d-bcd1b582af13" transform="translate(0 0)"><svg x="32" y="204" overflow="visible"><text stroke="#ffffff" stroke-width="4" font-family="arial" y="23.96" font-size="14pt" fill="#9e9e9e" font-weight="bold" transform="matrix(0.707 -0.409 0.707 0.409 0 0)" xml:space="preserve"><tspan x="8" dy="0">HTTP</tspan></text><text font-family="arial" y="23.96" font-size="14pt" fill="#9e9e9e" font-weight="bold" transform="matrix(0.707 -0.409 0.707 0.409 0 0)" xml:space="preserve"><tspan x="8" dy="0">HTTP</tspan></text></svg></g></g><g opacity="1"><g id="ef46bde4-ca14-4987-b730-d2b4607a6ad0" transform="translate(0 0)"><svg x="256" y="333" overflow="visible"><text stroke="#ffffff" stroke-width="4" font-family="arial" y="23.96" font-size="14pt" fill="#9e9e9e" font-weight="bold" transform="matrix(0.707 -0.409 0.707 0.409 0 0)" xml:space="preserve"><tspan x="8" dy="0">HTTP</tspan></text><text font-family="arial" y="23.96" font-size="14pt" fill="#9e9e9e" font-weight="bold" transform="matrix(0.707 -0.409 0.707 0.409 0 0)" xml:space="preserve"><tspan x="8" dy="0">HTTP</tspan></text></svg></g></g><g opacity="1"><g id="3c5fbbc6-fce8-4072-bc3a-b02969b2489e" transform="translate(0 0)"><svg x="-112" y="287" overflow="visible"><text stroke="#ffffff" stroke-width="4" font-family="arial" y="23.96" font-size="14pt" fill="#4286c5" font-weight="bold" transform="matrix(0.707 -0.409 0.707 0.409 0 0)" xml:space="preserve"><tspan x="8" dy="0">SSE</tspan></text><text font-family="arial" y="23.96" font-size="14pt" fill="#4286c5" font-weight="bold" transform="matrix(0.707 -0.409 0.707 0.409 0 0)" xml:space="preserve"><tspan x="8" dy="0">SSE</tspan></text></svg></g></g><g opacity="1"><g id="73e0a54e-499a-4366-93e3-32884338d236"><svg x="-16" y="194" overflow="visible"><text stroke="#ffffff" stroke-width="4" font-family="arial" y="26.24" font-size="16pt" fill="#4286c5" font-weight="bold" transform="matrix(0.707 0.409 -0.707 0.409 0 0)" xml:space="preserve"><tspan x="8" dy="0">replay</tspan></text><text font-family="arial" y="26.24" font-size="16pt" fill="#4286c5" font-weight="bold" transform="matrix(0.707 0.409 -0.707 0.409 0 0)" xml:space="preserve"><tspan x="8" dy="0">replay</tspan></text></svg></g></g></g><g></g></g></svg>