<?xml version="1.0" standalone="no"?>
<!DOCTYPE svg PUBLIC "-//W3C//DTD SVG 1.1//EN"
  "http://www.w3.org/Graphics/SVG/1.1/DTD/svg11.dtd">
<svg version="1.1" xmlns="http://www.w3.org/2000/svg" xmlns:xlink="http://www.w3.org/1999/xlink" width="1041" height="609" viewBox="-357 14 1034 609" id="ccdiagram"><filter id="grayscale"><feColorMatrix type="matrix" values="0.3333 0.3333 0.3333 0 0 0.3333 0.3333 0.3333 0 0 0.3333 0.3333 0.3333 0 0 0 0 0 1 0"></feColorMatrix></filter><g><g pointer-events="auto"><g opacity="1"><g><g><polygon points="416 248, 672 396, 672 433, 352 618, 288 618, 32 470, 32 433, 352 248" fill="#000000" opacity="0.2"></polygon><polygon points="416 241, 672 389, 672 426, 352 611, 288 611, 32 463, 32 426, 352 241" fill="#ffffff" stroke-width="2" stroke="#818181"></polygon><polygon points="384 259, 640 407, 320 592, 64 444" fill="rgba(0, 0, 0, 0)" stroke-width="0" stroke="#818181"></polygon></g></g></g><g opacity="1"><g><g><polygon points="32 26, 288 174, 288 211, -32 396, -96 396, -352 248, -352 211, -32 26" fill="#000000" opacity="0.2"></polygon><polygon points="32 19, 288 167, 288 204, -32 389, -96 389, -352 241, -352 204, -32 19" fill="#ffffff" stroke-width="2" stroke="#818181"></polygon><polygon points="0 37, 256 185, -64 370, -320 222" fill="rgba(0, 0, 0, 0)" stroke-width="0" stroke="#818181"></polygon></g></g></g></g><g pointer-events="auto"></g><g></g><g pointer-events="auto"></g><g></g><g pointer-events="auto"></g><g pointer-events="none"></g><g pointer-events="auto"><g><g cursor="cell"><line x1="-288" y1="426" x2="-288" y2="463" stroke="red" stroke-width="8" opacity="0"></line><line x1="-288" y1="426" x2="-288" y2="463" stroke="#4286c5" stroke-width="2" stroke-linecap="round"></line></g></g><g><g cursor="cell"><line x1="-32" y1="111" x2="-176" y2="194" stroke="red" stroke-width="8" opacity="0"></line><line x1="-32" y1="111" x2="-176" y2="194" stroke="#9e9e9e" stroke-width="2" stroke-linecap="round"></line></g></g><g><g cursor="cell"><line x1="16" y1="268" x2="118" y2="209" stroke="red" stroke-width="8" opacity="0"></line><line x1="16" y1="268" x2="118" y2="209" stroke="#9e9e9e" stroke-width="2" stroke-dasharray="8,6" stroke-linecap="butt"></line><polygon points="128 204, 102 209, 116 211, 119 218, 128 204" stroke-linejoin="round" fill="#9e9e9e" stroke="#9e9e9e" stroke-width="1"></polygon></g></g><g><g cursor="cell"><line x1="80" y1="490" x2="134" y2="459" stroke="red" stroke-width="8" opacity="0"></line><line x1="80" y1="490" x2="134" y2="459" stroke="#4286c5" stroke-width="2" stroke-dasharray="8,6" stroke-linecap="butt"></line><polygon points="144 453, 118 459, 132 460, 135 468, 144 453" stroke-linejoin="round" fill="#4286c5" stroke="#4286c5" stroke-width="1"></polygon></g></g><g><g cursor="cell"><line x1="-288" y1="463" x2="-250" y2="485" stroke="red" stroke-width="8" opacity="0"></line><line x1="-288" y1="463" x2="-250" y2="485" stroke="#4286c5" stroke-width="2" stroke-linecap="round"></line><polygon points="-240 490, -249 475, -252 483, -266 485, -240 490" stroke-linejoin="round" fill="#4286c5" stroke="#4286c5" stroke-width="1"></polygon></g></g><g><g cursor="cell"><line x1="240" y1="583" x2="294" y2="551" stroke="red" stroke-width="8" opacity="0"></line><line x1="240" y1="583" x2="294" y2="551" stroke="#4286c5" stroke-width="2" stroke-dasharray="8,6" stroke-linecap="butt"></line><polygon points="304 546, 278 551, 292 553, 295 561, 304 546" stroke-linejoin="round" fill="#4286c5" stroke="#4286c5" stroke-width="1"></polygon></g></g><g><g cursor="cell"><line x1="-48" y1="287" x2="-64" y2="296" stroke="red" stroke-width="8" opacity="0"></line><line x1="-48" y1="287" x2="-64" y2="296" stroke="#4286c5" stroke-width="2" stroke-linecap="round"></line></g></g><g><g cursor="cell"><line x1="-160" y1="500" x2="80" y2="490" stroke="red" stroke-width="8" opacity="0"></line><line x1="-160" y1="500" x2="80" y2="490" stroke="#4286c5" stroke-width="2" stroke-dasharray="8,6" stroke-linecap="butt"></line></g></g><g><g cursor="cell"><line x1="-160" y1="500" x2="-152" y2="495" stroke="red" stroke-width="8" opacity="0"></line><line x1="-160" y1="500" x2="-152" y2="495" stroke="#000000" stroke-width="2" stroke-dasharray="8,6" stroke-linecap="butt"></line><polygon points="-143 490, -168 495, -155 497, -152 504, -143 490" stroke-linejoin="round" fill="#000000" stroke="#000000" stroke-width="1"></polygon></g></g><g><g cursor="cell"><line x1="400" y1="490" x2="502" y2="431" stroke="red" stroke-width="8" opacity="0"></line><line x1="400" y1="490" x2="502" y2="431" stroke="#9e9e9e" stroke-width="2" stroke-dasharray="8,6" stroke-linecap="butt"></line><polygon points="512 426, 486 431, 500 433, 503 440, 512 426" stroke-linejoin="round" fill="#9e9e9e" stroke="#9e9e9e" stroke-width="1"></polygon></g></g><g><g cursor="cell"><line x1="-176" y1="231" x2="-122" y2="263" stroke="red" stroke-width="8" opacity="0"></line><line x1="-176" y1="231" x2="-122" y2="263" stroke="#9e9e9e" stroke-width="2" stroke-linecap="round"></line><polygon points="-112 268, -121 253, -124 261, -138 263, -112 268" stroke-linejoin="round" fill="#9e9e9e" stroke="#9e9e9e" stroke-width="1"></polygon></g></g><g><g cursor="cell"><line x1="-144" y1="361" x2="-90" y2="329" stroke="red" stroke-width="8" opacity="0"></line><line x1="-144" y1="361" x2="-90" y2="329" stroke="#4286c5" stroke-width="2" stroke-dasharray="8,6" stroke-linecap="butt"></line><polygon points="-80 324, -106 329, -92 331, -89 339, -80 324" stroke-linejoin="round" fill="#4286c5" stroke="#4286c5" stroke-width="1"></polygon></g></g><g><g cursor="cell"><line x1="-160" y1="500" x2="-144" y2="361" stroke="red" stroke-width="8" opacity="0"></line><line x1="-160" y1="500" x2="-144" y2="361" stroke="#4286c5" stroke-width="2" stroke-dasharray="8,6" stroke-linecap="butt"></line></g></g><g><g cursor="cell"><line x1="-64" y1="296" x2="-288" y2="426" stroke="red" stroke-width="8" opacity="0"></line><line x1="-64" y1="296" x2="-288" y2="426" stroke="#4286c5" stroke-width="2" stroke-linecap="round"></line></g></g><g><g cursor="cell"><line x1="240" y1="398" x2="342" y2="339" stroke="red" stroke-width="8" opacity="0"></line><line x1="240" y1="398" x2="342" y2="339" stroke="#9e9e9e" stroke-width="2" stroke-dasharray="8,6" stroke-linecap="butt"></line><polygon points="352 333, 326 338, 340 340, 343 348, 352 333" stroke-linejoin="round" fill="#9e9e9e" stroke="#9e9e9e" stroke-width="1"></polygon></g></g><g><g cursor="cell"><line x1="-160" y1="500" x2="240" y2="583" stroke="red" stroke-width="8" opacity="0"></line><line x1="-160" y1="500" x2="240" y2="583" stroke="#4286c5" stroke-width="2" stroke-dasharray="8,6" stroke-linecap="butt"></line></g></g><g><g cursor="cell"><line x1="16" y1="268" x2="-48" y2="287" stroke="red" stroke-width="8" opacity="0"></line><line x1="16" y1="268" x2="-48" y2="287" stroke="#4286c5" stroke-width="2" stroke-linecap="round"></line></g></g><g><g cursor="cell"><line x1="-176" y1="194" x2="-176" y2="231" stroke="red" stroke-width="8" opacity="0"></line><line x1="-176" y1="194" x2="-176" y2="231" stroke="#9e9e9e" stroke-width="2" stroke-linecap="round"></line></g></g></g><g pointer-events="auto"><g opacity="1"><g id="816d5eeb-6430-4f0f-ac40-bca7200152b0" transform="translate(0 0)"><svg x="-64" y="19" height="111.429" width="128" viewBox="0 0 33.867 29.482"><g fill-rule="evenodd"><path d="M.265 19.553l16.668-9.624 16.67 9.624" fill="none" stroke="#83838a" stroke-width=".265"></path><path d="M16.933.306v9.623" fill="none" stroke="#83838a" stroke-width=".267"></path><path d="M16.933 19.553v9.624l16.67-9.624V9.929z" fill="#b8b8bb" fill-opacity=".392" stroke-width=".267"></path><path d="M.265 9.93v9.623l16.668 9.624v-9.624z" fill="#d2d2d4" fill-opacity=".392" stroke-width=".267"></path><path d="M.265 9.93L16.933.305l16.67 9.623-16.67 9.624z" fill="#ececed" fill-opacity=".392" stroke-width=".267"></path><path d="M.265 9.93l16.668 9.623 16.67-9.624M16.933 19.553v9.624" fill="none" stroke="#83838a" stroke-width=".265"></path><path d="M.265 9.93v9.623l16.668 9.624 16.67-9.624V9.929L16.932.306z" fill="none" stroke="#000000" stroke-width=".529"></path></g></svg></g></g><g opacity="1"><g id="9f7b6308-a098-4803-91e8-d9dd3b396088" transform="translate(0 0)"><svg x="96" y="111" height="111.429" width="128" viewBox="0 0 33.867 29.482"><g fill-rule="evenodd"><path d="M.265 19.553l16.668-9.624 16.67 9.624" fill="none" stroke="#83838a" stroke-width=".265"></path><path d="M16.933.306v9.623" fill="none" stroke="#83838a" stroke-width=".267"></path><path d="M16.933 19.553v9.624l16.67-9.624V9.929z" fill="#b8b8bb" fill-opacity=".392" stroke-width=".267"></path><path d="M.265 9.93v9.623l16.668 9.624v-9.624z" fill="#d2d2d4" fill-opacity=".392" stroke-width=".267"></path><path d="M.265 9.93L16.933.305l16.67 9.623-16.67 9.624z" fill="#ececed" fill-opacity=".392" stroke-width=".267"></path><path d="M.265 9.93l16.668 9.623 16.67-9.624M16.933 19.553v9.624" fill="none" stroke="#83838a" stroke-width=".265"></path><path d="M.265 9.93v9.623l16.668 9.624 16.67-9.624V9.929L16.932.306z" fill="none" stroke="#000000" stroke-width=".529"></path></g></svg></g></g><g opacity="1"><g id="74a681ed-ee48-44ca-b4e6-d718ac5803e1" transform="translate(0 0)"><svg x="320" y="241" height="111.429" width="128" viewBox="0 0 33.867 29.482"><g fill-rule="evenodd"><path d="M.265 19.553l16.668-9.624 16.67 9.624" fill="none" stroke="#83838a" stroke-width=".265"></path><path d="M16.933.306v9.623" fill="none" stroke="#83838a" stroke-width=".267"></path><path d="M16.933 19.553v9.624l16.67-9.624V9.929z" fill="#b8b8bb" fill-opacity=".392" stroke-width=".267"></path><path d="M.265 9.93v9.623l16.668 9.624v-9.624z" fill="#d2d2d4" fill-opacity=".392" stroke-width=".267"></path><path d="M.265 9.93L16.933.305l16.67 9.623-16.67 9.624z" fill="#ececed" fill-opacity=".392" stroke-width=".267"></path><path d="M.265 9.93l16.668 9.623 16.67-9.624M16.933 19.553v9.624" fill="none" stroke="#83838a" stroke-width=".265"></path><path d="M.265 9.93v9.623l16.668 9.624 16.67-9.624V9.929L16.932.306z" fill="none" stroke="#000000" stroke-width=".529"></path></g></svg></g></g><g opacity="1"><g id="d2cf6de8-f24d-485c-97d8-8717f8bde4a2" transform="translate(0 0)"><svg x="480" y="333" height="111.429" width="128" viewBox="0 0 33.867 29.482"><g fill-rule="evenodd"><path d="M.265 19.553l16.668-9.624 16.67 9.624" fill="none" stroke="#83838a" stroke-width=".265"></path><path d="M16.933.306v9.623" fill="none" stroke="#83838a" stroke-width=".267"></path><path d="M16.933 19.553v9.624l16.67-9.624V9.929z" fill="#b8b8bb" fill-opacity=".392" stroke-width=".267"></path><path d="M.265 9.93v9.623l16.668 9.624v-9.624z" fill="#d2d2d4" fill-opacity=".392" stroke-width=".267"></path><path d="M.265 9.93L16.933.305l16.67 9.623-16.67 9.624z" fill="#ececed" fill-opacity=".392" stroke-width=".267"></path><path d="M.265 9.93l16.668 9.623 16.67-9.624M16.933 19.553v9.624" fill="none" stroke="#83838a" stroke-width=".265"></path><path d="M.265 9.93v9.623l16.668 9.624 16.67-9.624V9.929L16.932.306z" fill="none" stroke="#000000" stroke-width=".529"></path></g></svg></g></g><g opacity="1"><g id="d5a79aea-81d0-4273-a282-28b34cfcdb3f" transform="translate(0 0)"><svg x="-112" y="231" height="111" width="128" fill-rule="evenodd"><path d="M64 74v37l64-37V37L64 74z" fill="#26527b"></path><path d="M0 37v37l64 37V74L0 37z" fill="#326ca2"></path><path d="M0 37L64 0l64 37-64 37L0 37z" fill="#4286c5"></path><path d="M64 73.407l62.111-35.86.514.889-62.487 36.078h-.276L.743 38.072l.514-.89L64 73.407z" fill="#deeaf5"></path><path d="M63.486 74h1.027v36h-1.027z" fill="#deeaf5"></path><path d="M128 37v37l-64 37L0 74V37L64 0l64 37zM2.054 38.185v34.63L64 108.627l61.946-35.812v-34.63L64 2.373 2.054 38.185z" fill="#000000"></path></svg></g></g><g opacity="1"><g id="4f366276-eb41-4623-bfb9-34dc61f2ea81" transform="translate(0 0)"><svg x="112" y="361" height="111" width="128" fill-rule="evenodd"><path d="M64 74v37l64-37V37L64 74z" fill="#26527b"></path><path d="M0 37v37l64 37V74L0 37z" fill="#326ca2"></path><path d="M0 37L64 0l64 37-64 37L0 37z" fill="#4286c5"></path><path d="M64 73.407l62.111-35.86.514.889-62.487 36.078h-.276L.743 38.072l.514-.89L64 73.407z" fill="#deeaf5"></path><path d="M63.486 74h1.027v36h-1.027z" fill="#deeaf5"></path><path d="M128 37v37l-64 37L0 74V37L64 0l64 37zM2.054 38.185v34.63L64 108.627l61.946-35.812v-34.63L64 2.373 2.054 38.185z" fill="#000000"></path></svg></g></g><g opacity="1"><g id="8741f916-7552-4d11-8323-aac471b6df09" transform="translate(0 0)"><svg x="272" y="453" height="111" width="128" fill-rule="evenodd"><path d="M64 74v37l64-37V37L64 74z" fill="#26527b"></path><path d="M0 37v37l64 37V74L0 37z" fill="#326ca2"></path><path d="M0 37L64 0l64 37-64 37L0 37z" fill="#4286c5"></path><path d="M64 73.407l62.111-35.86.514.889-62.487 36.078h-.276L.743 38.072l.514-.89L64 73.407z" fill="#deeaf5"></path><path d="M63.486 74h1.027v36h-1.027z" fill="#deeaf5"></path><path d="M128 37v37l-64 37L0 74V37L64 0l64 37zM2.054 38.185v34.63L64 108.627l61.946-35.812v-34.63L64 2.373 2.054 38.185z" fill="#000000"></path></svg></g></g><g opacity="1"><g id="43f8f67e-6dce-44b1-9017-78fdb2ecebeb" transform="translate(0 0)"><svg x="-240" y="453" height="94" width="97" fill-rule="evenodd"><path d="M0 18.6v18.6l32.333 18.6h32.334L97 37.2V18.6L64.667 0H32.333L0 18.6z" fill="#ffeb3b"></path><path d="M64.667 55.8L97 37.2v37.2L64.667 93V55.8z" fill="#d4be00"></path><path d="M32.333 55.8h32.334V93H32.333V55.8zM0 37.2v37.2L32.333 93V55.8L0 37.2z" fill="#ffe608"></path><g fill="none" stroke="#6e6300" stroke-width="1.04"><path d="M.955 37.877L32.333 55.8h32.334l31.378-17.923M32.333 55.8v36.211M64.667 55.8v36.574"></path></g><path d="M97 18.6v55.8L64.667 93H32.333L0 74.4V18.6L32.333 0h32.334L97 18.6zM32.865 1.989L1.989 19.751v53.498l30.876 17.762h31.27l30.876-17.762V19.751L64.135 1.989h-31.27z" fill="#000000"></path><path d="M69.912 15.583c11.818 6.798 11.818 17.836 0 24.635-11.817 6.798-31.007 6.798-42.824 0-11.818-6.799-11.818-17.837 0-24.635 11.817-6.799 31.007-6.799 42.824 0z" fill="#f5b720"></path><path d="M49.584 14.774c1.824 1.049 1.824 2.753 0 3.802-1.824 1.05-4.786 1.05-6.61 0-1.824-1.049-1.824-2.753 0-3.802 1.824-1.05 4.786-1.05 6.61 0zM60.451 21.025c1.825 1.049 1.825 2.753 0 3.803-1.824 1.049-4.786 1.049-6.61 0-1.824-1.05-1.824-2.754 0-3.803s4.786-1.049 6.61 0zM71.319 27.276c1.824 1.05 1.824 2.754 0 3.803-1.825 1.049-4.787 1.049-6.611 0-1.824-1.049-1.824-2.753 0-3.803 1.824-1.049 4.786-1.049 6.611 0zM38.497 33.654c1.824 1.05 1.824 2.754 0 3.803-1.825 1.05-4.787 1.05-6.611 0-1.824-1.049-1.824-2.753 0-3.803 1.824-1.049 4.786-1.049 6.611 0z" fill="#ffffff"></path><path d="M47.458 15.878c.453.26.393.717-.133 1.02-.526.303-1.32.337-1.773.076-.452-.26-.392-.717.133-1.019.526-.303 1.321-.337 1.773-.077z" fill="#ffffff"></path><path d="M48.111 15.621c1.012.582 1.012 1.526 0 2.108-1.011.582-2.653.582-3.664 0-1.012-.582-1.012-1.526 0-2.108 1.011-.582 2.653-.582 3.664 0zM58.978 21.872c1.012.582 1.012 1.527 0 2.108-1.011.582-2.653.582-3.664 0-1.012-.581-1.012-1.526 0-2.108 1.011-.581 2.653-.581 3.664 0zM69.846 28.124c1.011.581 1.011 1.526 0 2.108-1.012.582-2.654.582-3.665 0-1.011-.582-1.011-1.527 0-2.108 1.011-.582 2.653-.582 3.665 0z" fill="#f5b720"></path><path d="M37.024 34.502c1.011.582 1.011 1.526 0 2.108-1.012.582-2.654.582-3.665 0-1.011-.582-1.011-1.526 0-2.108 1.011-.582 2.653-.582 3.665 0z" fill="#ffffff"></path><g fill="#ffffff"><path d="M52.301 25.172L37.719 33.56l.482.834 14.584-8.388-.484-.834z"></path><path d="M46.993 26.089l6.654-1.146-4.324 5.168c.189-1.691-.757-3.313-2.33-4.022z" stroke="#ffffff" stroke-width=".36"></path></g><g fill="#ffffff"><path d="M43.488 19.937l-6.057 13.797.886.387 6.056-13.798-.885-.386z"></path><path d="M39.76 23.812l4.676-4.854-.405 6.716c-.855-1.474-2.582-2.221-4.271-1.862z" stroke="#ffffff" stroke-width=".36"></path></g><g fill="#ffffff"><path d="M61.953 30.061l-23.985 3.483.14.955 23.985-3.486-.14-.952z"></path><path d="M56.68 28.957l6.608 1.387-5.936 3.209c.804-1.503.526-3.358-.672-4.596h0z" stroke="#ffffff" stroke-width=".36"></path></g><path d="M37.96 33.977l13.12-7.547M37.873 33.927l5.792-13.134M38.037 34.022l22.478-3.281" fill="#ffffff" stroke="#ffffff" stroke-width="1.93"></path></svg></g></g></g><g pointer-events="auto"></g><g pointer-events="auto"></g><g pointer-events="auto"><g opacity="1"><g id="38753f2c-d9f6-466c-a46c-c436fa1d8075"><svg x="-64" y="56" overflow="visible"><text stroke="#ffffff" stroke-width="4" font-family="arial" y="30.799999999999997" font-size="20pt" fill="#9e9e9e" font-weight="bold" transform="matrix(0.707, 0.409, 0, 0.816, 0, 0)" xml:space="preserve"><tspan x="8" dy="0">client</tspan></text><text font-family="arial" y="30.799999999999997" font-size="20pt" fill="#9e9e9e" font-weight="bold" transform="matrix(0.707, 0.409, 0, 0.816, 0, 0)" xml:space="preserve"><tspan x="8" dy="0">client</tspan></text></svg></g></g><g opacity="1"><g id="843f53d6-9eeb-4da2-9382-2d3720737b76" transform="translate(0 0)"><svg x="16" y="324" overflow="visible"><text stroke="#ffffff" stroke-width="4" font-family="arial" y="36.5" font-size="25pt" fill="#9e9e9e" font-weight="bold" transform="matrix(0.707 -0.409 0.707 0.409 0 0)" xml:space="preserve"><tspan x="8" dy="0">datacenter A</tspan></text><text font-family="arial" y="36.5" font-size="25pt" fill="#9e9e9e" font-weight="bold" transform="matrix(0.707 -0.409 0.707 0.409 0 0)" xml:space="preserve"><tspan x="8" dy="0">datacenter A</tspan></text></svg></g></g><g opacity="1"><g id="49228e13-0222-4671-a195-efb509839c5f" transform="translate(0 0)"><svg x="-271" y="443" overflow="visible"><text stroke="#ffffff" stroke-width="4" font-family="arial" y="23.96" font-size="14pt" fill="#4286c5" font-weight="bold" transform="matrix(0.707 0.409 -0.707 0.409 0 0)" xml:space="preserve"><tspan x="8" dy="0">POST</tspan></text><text font-family="arial" y="23.96" font-size="14pt" fill="#4286c5" font-weight="bold" transform="matrix(0.707 0.409 -0.707 0.409 0 0)" xml:space="preserve"><tspan x="8" dy="0">POST</tspan></text></svg></g></g><g opacity="1"><g id="11665e1a-7fbc-4055-8c36-5ed65702fbca" transform="translate(0 0)"><svg x="240" y="398" overflow="visible"><text stroke="#ffffff" stroke-width="4" font-family="arial" y="19.4" font-size="10pt" fill="#9e9e9e" font-weight="bold" transform="matrix(0.707 -0.409 0.707 0.409 0 0)" xml:space="preserve"><tspan x="8" dy="0">BAN /img HTTP/1.1</tspan></text><text font-family="arial" y="19.4" font-size="10pt" fill="#9e9e9e" font-weight="bold" transform="matrix(0.707 -0.409 0.707 0.409 0 0)" xml:space="preserve"><tspan x="8" dy="0">BAN /img HTTP/1.1</tspan></text></svg></g></g><g opacity="1"><g id="8f1be700-839d-45ec-81bd-bc522c0cb217"><svg x="320" y="463" overflow="visible"><text stroke="#ffffff" stroke-width="4" font-family="arial" y="21.68" font-size="12pt" fill="#4286c5" font-weight="bold" transform="matrix(0.707 0.409 -0.707 0.409 0 0)" xml:space="preserve"><tspan x="8" dy="0">     http</tspan><tspan x="8" dy="1.1em">broadcast</tspan></text><text font-family="arial" y="21.68" font-size="12pt" fill="#4286c5" font-weight="bold" transform="matrix(0.707 0.409 -0.707 0.409 0 0)" xml:space="preserve"><tspan x="8" dy="0">     http</tspan><tspan x="8" dy="1.1em">broadcast</tspan></text></svg></g></g><g opacity="1"><g id="4c45c909-1616-45d8-9d12-262f5fad1c58"><svg x="-64" y="241" overflow="visible"><text stroke="#ffffff" stroke-width="4" font-family="arial" y="21.68" font-size="12pt" fill="#4286c5" font-weight="bold" transform="matrix(0.707 0.409 -0.707 0.409 0 0)" xml:space="preserve"><tspan x="8" dy="0">    http</tspan><tspan x="8" dy="1.1em">broadcast</tspan></text><text font-family="arial" y="21.68" font-size="12pt" fill="#4286c5" font-weight="bold" transform="matrix(0.707 0.409 -0.707 0.409 0 0)" xml:space="preserve"><tspan x="8" dy="0">    http</tspan><tspan x="8" dy="1.1em">broadcast</tspan></text></svg></g></g><g opacity="1"><g id="62c03b3f-0481-46d9-a66c-6cb0593a8d9c" transform="translate(0 0)"><svg x="240" y="564" overflow="visible"><text stroke="#ffffff" stroke-width="4" font-family="arial" y="23.96" font-size="14pt" fill="#4286c5" font-weight="bold" transform="matrix(0.707 -0.409 0.707 0.409 0 0)" xml:space="preserve"><tspan x="8" dy="0">SSE</tspan></text><text font-family="arial" y="23.96" font-size="14pt" fill="#4286c5" font-weight="bold" transform="matrix(0.707 -0.409 0.707 0.409 0 0)" xml:space="preserve"><tspan x="8" dy="0">SSE</tspan></text></svg></g></g><g opacity="1"><g id="91890afc-beaa-4e4a-9ef4-f788e517b2fb" transform="translate(0 0)"><svg x="80" y="472" overflow="visible"><text stroke="#ffffff" stroke-width="4" font-family="arial" y="23.96" font-size="14pt" fill="#4286c5" font-weight="bold" transform="matrix(0.707 -0.409 0.707 0.409 0 0)" xml:space="preserve"><tspan x="8" dy="0">SSE</tspan></text><text font-family="arial" y="23.96" font-size="14pt" fill="#4286c5" font-weight="bold" transform="matrix(0.707 -0.409 0.707 0.409 0 0)" xml:space="preserve"><tspan x="8" dy="0">SSE</tspan></text></svg></g></g><g opacity="1"><g id="3c5fbbc6-fce8-4072-bc3a-b02969b2489e" transform="translate(0 0)"><svg x="-144" y="342" overflow="visible"><text stroke="#ffffff" stroke-width="4" font-family="arial" y="23.96" font-size="14pt" fill="#4286c5" font-weight="bold" transform="matrix(0.707 -0.409 0.707 0.409 0 0)" xml:space="preserve"><tspan x="8" dy="0">SSE</tspan></text><text font-family="arial" y="23.96" font-size="14pt" fill="#4286c5" font-weight="bold" transform="matrix(0.707 -0.409 0.707 0.409 0 0)" xml:space="preserve"><tspan x="8" dy="0">SSE</tspan></text></svg></g></g><g opacity="1"><g id="73e0a54e-499a-4366-93e3-32884338d236"><svg x="160" y="370" overflow="visible"><text stroke="#ffffff" stroke-width="4" font-family="arial" y="21.68" font-size="12pt" fill="#4286c5" font-weight="bold" transform="matrix(0.707 0.409 -0.707 0.409 0 0)" xml:space="preserve"><tspan x="8" dy="0">    http</tspan><tspan x="8" dy="1.1em">broadcast</tspan></text><text font-family="arial" y="21.68" font-size="12pt" fill="#4286c5" font-weight="bold" transform="matrix(0.707 0.409 -0.707 0.409 0 0)" xml:space="preserve"><tspan x="8" dy="0">    http</tspan><tspan x="8" dy="1.1em">broadcast</tspan></text></svg></g></g><g opacity="1"><g id="b60de6ef-3db0-4066-8cc5-fb043606c098"><svg x="-288" y="500" overflow="visible"><text stroke="#ffffff" stroke-width="4" font-family="arial" y="30.799999999999997" font-size="20pt" fill="#4286c5" font-weight="bold" transform="matrix(0.707 0.409 -0.707 0.409 0 0)" xml:space="preserve"><tspan x="8" dy="0">mercure HUB</tspan></text><text font-family="arial" y="30.799999999999997" font-size="20pt" fill="#4286c5" font-weight="bold" transform="matrix(0.707 0.409 -0.707 0.409 0 0)" xml:space="preserve"><tspan x="8" dy="0">mercure HUB</tspan></text></svg></g></g><g opacity="1"><g id="e99fe23e-8c1c-474d-9564-5d9d0332331a"><svg x="320" y="278" overflow="visible"><text stroke="#ffffff" stroke-width="4" font-family="arial" y="29.659999999999997" font-size="19pt" fill="#9e9e9e" font-weight="bold" transform="matrix(0.707, 0.409, 0, 0.816, 0, 0)" xml:space="preserve"><tspan x="8" dy="0">server</tspan></text><text font-family="arial" y="29.659999999999997" font-size="19pt" fill="#9e9e9e" font-weight="bold" transform="matrix(0.707, 0.409, 0, 0.816, 0, 0)" xml:space="preserve"><tspan x="8" dy="0">server</tspan></text></svg></g></g><g opacity="1"><g id="8b22aa49-0bb9-451b-9acc-fa8d02a79243"><svg x="480" y="370" overflow="visible"><text stroke="#ffffff" stroke-width="4" font-family="arial" y="29.659999999999997" font-size="19pt" fill="#9e9e9e" font-weight="bold" transform="matrix(0.707, 0.409, 0, 0.816, 0, 0)" xml:space="preserve"><tspan x="8" dy="0">server</tspan></text><text font-family="arial" y="29.659999999999997" font-size="19pt" fill="#9e9e9e" font-weight="bold" transform="matrix(0.707, 0.409, 0, 0.816, 0, 0)" xml:space="preserve"><tspan x="8" dy="0">server</tspan></text></svg></g></g><g opacity="1"><g id="a838b6bc-62a0-40b3-991c-90240a503449"><svg x="96" y="148" overflow="visible"><text stroke="#ffffff" stroke-width="4" font-family="arial" y="29.659999999999997" font-size="19pt" fill="#9e9e9e" font-weight="bold" transform="matrix(0.707, 0.409, 0, 0.816, 0, 0)" xml:space="preserve"><tspan x="8" dy="0">server</tspan></text><text font-family="arial" y="29.659999999999997" font-size="19pt" fill="#9e9e9e" font-weight="bold" transform="matrix(0.707, 0.409, 0, 0.816, 0, 0)" xml:space="preserve"><tspan x="8" dy="0">server</tspan></text></svg></g></g><g opacity="1"><g id="b5ddc418-af94-4c34-846e-3a96074f1423" transform="translate(0 0)"><svg x="400" y="490" overflow="visible"><text stroke="#ffffff" stroke-width="4" font-family="arial" y="19.4" font-size="10pt" fill="#9e9e9e" font-weight="bold" transform="matrix(0.707 -0.409 0.707 0.409 0 0)" xml:space="preserve"><tspan x="8" dy="0">BAN /img HTTP/1.1</tspan></text><text font-family="arial" y="19.4" font-size="10pt" fill="#9e9e9e" font-weight="bold" transform="matrix(0.707 -0.409 0.707 0.409 0 0)" xml:space="preserve"><tspan x="8" dy="0">BAN /img HTTP/1.1</tspan></text></svg></g></g><g opacity="1"><g id="10bbc8e5-32be-4092-b86c-b4d1b528ba33" transform="translate(0 0)"><svg x="16" y="268" overflow="visible"><text stroke="#ffffff" stroke-width="4" font-family="arial" y="19.4" font-size="10pt" fill="#9e9e9e" font-weight="bold" transform="matrix(0.707 -0.409 0.707 0.409 0 0)" xml:space="preserve"><tspan x="8" dy="0">BAN /img HTTP/1.1</tspan></text><text font-family="arial" y="19.4" font-size="10pt" fill="#9e9e9e" font-weight="bold" transform="matrix(0.707 -0.409 0.707 0.409 0 0)" xml:space="preserve"><tspan x="8" dy="0">BAN /img HTTP/1.1</tspan></text></svg></g></g><g opacity="1"><g id="8c13e7c2-06de-416f-9dda-372f672a2cee" transform="translate(0 0)"><svg x="-144" y="176" overflow="visible"><text stroke="#ffffff" stroke-width="4" font-family="arial" y="19.4" font-size="10pt" fill="#9e9e9e" font-weight="bold" transform="matrix(0.707 -0.409 0.707 0.409 0 0)" xml:space="preserve"><tspan x="8" dy="0">BAN /img HTTP/1.1</tspan></text><text font-family="arial" y="19.4" font-size="10pt" fill="#9e9e9e" font-weight="bold" transform="matrix(0.707 -0.409 0.707 0.409 0 0)" xml:space="preserve"><tspan x="8" dy="0">BAN /img HTTP/1.1</tspan></text></svg></g></g><g opacity="1"><g id="96dc845f-9ee7-4c06-9ce4-01c59473a81c" transform="translate(0 0)"><svg x="400" y="546" overflow="visible"><text stroke="#ffffff" stroke-width="4" font-family="arial" y="36.5" font-size="25pt" fill="#9e9e9e" font-weight="bold" transform="matrix(0.707 -0.409 0.707 0.409 0 0)" xml:space="preserve"><tspan x="8" dy="0">datacenter B</tspan></text><text font-family="arial" y="36.5" font-size="25pt" fill="#9e9e9e" font-weight="bold" transform="matrix(0.707 -0.409 0.707 0.409 0 0)" xml:space="preserve"><tspan x="8" dy="0">datacenter B</tspan></text></svg></g></g></g><g></g></g></svg>